<svg xmlns="http://www.w3.org/2000/svg" viewBox="0 0 989 781.4"><defs/><defs><linearGradient id="a" x1="949.5" x2="949.5" y1="825.5" y2="497.2" gradientTransform="rotate(-2.3 725.2 516.8)" gradientUnits="userSpaceOnUse"><stop offset="0" stop-color="gray" stop-opacity=".3"/><stop offset=".5" stop-color="gray" stop-opacity=".1"/><stop offset="1" stop-color="gray" stop-opacity=".1"/></linearGradient></defs><path fill="#f2f2f2" d="M490.5 204c45.6-8 98.6-6.7 155.7 0a527.7 527.7 0 010-193H490.5a543.8 543.8 0 000 193z"/><path fill="#36345c" d="M591.1 17.7H537V0h54.2z"/><path d="M369.3 584.9c45.6-8 98.6-6.6 155.7 0a527.7 527.7 0 010-193H369.3a543.8 543.8 0 000 193z" opacity=".1"/><path fill="#f2f2f2" d="M362.3 575.9c45.6-8 98.6-6.6 155.7 0a527.7 527.7 0 010-193H362.3a543.8 543.8 0 000 193z"/><path fill="#36345c" d="M462.9 389.7h-54.2V372h54.2z"/><path fill="none" stroke="#36345c" stroke-miterlimit="10" stroke-width="2" d="M228.5 261S288.9 90 423.5 88.5"/><path fill="#36345c" d="M435.5 89a61 61 0 00-17.3 9l3.7-9.4-3.3-9.6a60 60 0 0016.9 10z"/><path fill="none" stroke="#36345c" stroke-miterlimit="10" stroke-width="2" d="M233.5 326s-5.5 137.4 73 156"/><path fill="#36345c" d="M318.5 484c-6 1.1-13.5 3.5-18.4 6.6l5-8.9-2-10c3.8 4.6 10.1 9.2 15.4 12.2z"/><path fill="none" stroke="#36345c" stroke-miterlimit="10" stroke-width="2" d="M249.5 281s424.6-70.8 497.5 16.7"/><path fill="#36345c" d="M753.5 308a60.7 60.7 0 00-17.4-9l9.8-2.4 6-8.2c-.7 5.8.2 13.6 1.6 19.5z"/><ellipse cx="494.5" cy="748.4" fill="#0ead69" opacity=".1" rx="494.5" ry="33"/><path d="M928.8 502.5c-40.4 22.6-80.6 57-120.8 98.3a527.9 527.9 0 00-121.8-149.6L807 352.9a543.9 543.9 0 01121.9 149.6z" opacity=".1"/><path fill="#f2f2f2" d="M930.8 494.5c-40.4 22.6-80.6 57-120.8 98.3a527.9 527.9 0 00-121.8-149.6L809 344.9a543.9 543.9 0 01121.9 149.6z"/><path fill="#36345c" d="M724 399.8l42-34.2 11.2 13.8-42 34.3z"/><path fill="#0ead69" d="M750.8 466.5l74.4-60.6 8.3 10-74.5 60.7z"/><path fill="url(#a)" d="M1044.2 795a9.8 9.8 0 00-2.2-2.4c-4.4-4.1-6.4-10.2-7.5-16.1s-1.4-12-3.1-17.9a59.2 59.2 0 00-3.5-8.6c-1-2.2-2.3-6.4-4.1-7.8a2.8 2.8 0 00-1.3-.7 14.7 14.7 0 00-3.6-4.8c-2.9-2.6-6.4-4.6-8.3-8a18 18 0 00-1.9-3.3c-1.3-1.4-3.3-2-4.5-3.5-1.6-2-1.2-4.7-1-7.2s0-5.4-2.2-6.7c-1.2-.8-2.9-.7-4.2-1.4-2-1-2.8-3.5-2.8-5.8s.8-4.4 1-6.7c.5-7.1-4.2-14.2-2.4-21.2.7-2.6 2.3-4.9 3.5-7.3a16.1 16.1 0 001-2.6 35.4 35.4 0 009.7 2.4c-5.5-12.4-4.1-26.8-6.7-40l.3-.5a20.8 20.8 0 004.3-11.8c0-5-2.3-9.6-3.4-14.4-.9-4.2-.8-8.5-2-12.5a37.6 37.6 0 00-3.1-7.2l-4-6.8-3.8-12.8c-1.8-6-3.7-12-7.2-17.1-1.3-1.9-1.6-5.7-3.6-6.9a8.8 8.8 0 00-5.2-.9c-2.8-1.5-5.2-3.8-5.6-6.9a6.7 6.7 0 01.2-2h.4c4.4-.4 6.6-4.2 8.9-7.6 3.7-5.5 2.3-13 0-19.2a13 13 0 00-3-5.3c-3.2-3-8.3-2.4-12.5-3.8a40.1 40.1 0 00-4-1.6c-2.8-.6-5.7.3-8.2 1.6s-4.9 2.9-7.5 3.9-6 1.8-6.6 4.5a5 5 0 00.2 2.7 10.2 10.2 0 003.1 4.5 17.8 17.8 0 0010.9 24.8c.8 1.2 1.5 2.4 2.1 3.7 1.2 2.3 2.2 4.9 1.8 7.3a22.4 22.4 0 00-2 2.4c-3 4-4.5 8.7-6 13.4a141.4 141.4 0 00-4.9 18.3c-2.4 5.2-5.4 10.1-7.2 15.6a35.2 35.2 0 01-9.3-1.3l-8.5-1.9c-3-.6-6-1.4-8.3-3.3-1.2-1-2.1-2.3-3.4-3.3s-3.7-2.2-5-1.4a4 4 0 00-.8.6c-1.2-2.6-4.2 3.8-5.7 1.5-2-3.4-9.3.5-13.2-.1a9.3 9.3 0 00-6.8 1.5c-2.2 1.7-3.7 5-2 7.3a12.5 12.5 0 001.4 1.5 28.6 28.6 0 013.1 4.2c3 4.5 10.2.6 15.6 1.6l3.6-7.8c-.7 2.1-2.2 4.6-1.8 6.8l37.5 12.8a22.9 22.9 0 007.6 1.7 12.7 12.7 0 003-.4v2c0 13.2-2 26.3-2.4 39.5 0 2.4 0 5 1.5 6.9 1.7 2 4.7 2.4 7.4 2a16.6 16.6 0 001.8-.5 69.2 69.2 0 012 10.1l2.4 17.8a27 27 0 01.4 5.5c-.3 4.2-2.5 8-4 11.9s-2.6 8.4-.5 12c.6 1.2 1.5 2.1 2.1 3.3a13.1 13.1 0 011 5.7l.5 16.2a1.9 1.9 0 00-1.3.2c-2 1.6-1.8 9.3-2 11.7-.2 4 0 8.1-.2 12.2a72.3 72.3 0 01-2.7 16 10.3 10.3 0 01-2.3 4.7 9.9 9.9 0 01-4 2.1 46.5 46.5 0 01-15.5 2.1c-2 0-4.3-.3-6.2.5s-3.6 3-2.9 5c.6 1.7 2.5 2.5 4.2 3.1a66.3 66.3 0 0111 5 30.8 30.8 0 004.2 2.5 22 22 0 004.4 1l17.7 3c3.7.7 8 1 10.3-2 1.3-1.6 1.5-3.8 1.4-5.8-.1-4-.9-8.1-.4-12a37.2 37.2 0 011.9-7l5.3-15.5c1.8-5.3 3.6-10.6 4.3-16.1.2-2 .2-4.3-1.3-5.5a3.7 3.7 0 00-1.4-.7c0-4.8-.7-9.6-.4-14.5l.3-3.6a17.2 17.2 0 012.5 3c1.7 2.6 2.3 6.1 5 8 2.1 1.4 5.4 1.4 7 3.6a10.3 10.3 0 011.1 2.7 19.4 19.4 0 004 6.3 32.3 32.3 0 002.5 6.4l4.4 9.3a106 106 0 005 9.8 27.8 27.8 0 013.3 6.4c1.4 5-.9 10.4-4.5 14s-8.4 5.7-13.2 7.7a3.6 3.6 0 00-1.3.8 2.6 2.6 0 00-.6 1.7c0 2.3 1.9 4.3 4 5a15.6 15.6 0 006.9.3c12.8-1.6 25.5-4.7 36.8-10.9a13.2 13.2 0 004.4-3.4 5.1 5.1 0 00.8-5.3z" transform="translate(-105.5 -59.3)"/><path fill="#2f2e41" d="M884.6 511.5q3.2 4.9 6 10a37.2 37.2 0 013.2 7.2c1.2 4 1.1 8.3 2 12.4 1 4.8 3.3 9.4 3.3 14.3A20.6 20.6 0 01895 567a56.3 56.3 0 01-8.8 9.1 187.7 187.7 0 01-12.5-61.2c0-2.9-.1-5.9 1-8.6.6-1.7 3.7-6.3 5.7-4.5.8.7 1 3.7 1.4 4.7a36.9 36.9 0 003 4.9z"/><path d="M884.6 511.5q3.2 4.9 6 10a37.2 37.2 0 013.2 7.2c1.2 4 1.1 8.3 2 12.4 1 4.8 3.3 9.4 3.3 14.3A20.6 20.6 0 01895 567a56.3 56.3 0 01-8.8 9.1 187.7 187.7 0 01-12.5-61.2c0-2.9-.1-5.9 1-8.6.6-1.7 3.7-6.3 5.7-4.5.8.7 1 3.7 1.4 4.7a36.9 36.9 0 003 4.9z" opacity=".1"/><path fill="#fbbebe" d="M777.3 522.4c-4-.6-8.3-.3-11.3 2.2a9.3 9.3 0 00-3.2 6.2c-.3 2.8 1.3 6 4 6.3a13.2 13.2 0 002-.2 29.9 29.9 0 015.3.5 21.4 21.4 0 0018.3-7.4c2.4-3-.8-4.3-3.6-4.9-3.9-.8-7.6-2-11.5-2.7z"/><path fill="#36345c" d="M844.2 612.7l2.4 17.6a26.7 26.7 0 01.4 5.5c-.3 4.2-2.5 8-4 11.8s-2.6 8.4-.5 12c.6 1 1.5 2 2.1 3.2a13 13 0 011 5.6l.7 25a157.3 157.3 0 0023.2-.1 1.3 1.3 0 00.8-.3 1.3 1.3 0 00.3-.9c.4-5.8-.7-11.7-.3-17.5.1-2.2.4-4.3.4-6.5.2-8.7-4.1-17.2-2.8-25.8a57.5 57.5 0 011.6-6.4c4-15 3.2-30.8 2.3-46.3a1.1 1.1 0 00-.2-.7 1.1 1.1 0 00-.6-.3 28.5 28.5 0 00-25.7 5c-1.1.8-3.9 1.6-4.6 2.7-1 1.5.3 3 .9 4.5a56.8 56.8 0 012.6 12z"/><path d="M844.2 612.7l2.4 17.6a26.7 26.7 0 01.4 5.5c-.3 4.2-2.5 8-4 11.8s-2.6 8.4-.5 12c.6 1 1.5 2 2.1 3.2a13 13 0 011 5.6l.7 25a157.3 157.3 0 0023.2-.1 1.3 1.3 0 00.8-.3 1.3 1.3 0 00.3-.9c.4-5.8-.7-11.7-.3-17.5.1-2.2.4-4.3.4-6.5.2-8.7-4.1-17.2-2.8-25.8a57.5 57.5 0 011.6-6.4c4-15 3.2-30.8 2.3-46.3a1.1 1.1 0 00-.2-.7 1.1 1.1 0 00-.6-.3 28.5 28.5 0 00-25.7 5c-1.1.8-3.9 1.6-4.6 2.7-1 1.5.3 3 .9 4.5a56.8 56.8 0 012.6 12z" opacity=".1"/><path fill="#36345c" d="M890.5 607.4c-1.2 2.5-2.7 4.7-3.4 7.3-1.9 7 2.8 14 2.3 21.1-.2 2.2-.9 4.4-1 6.6s.8 4.7 2.8 5.8c1.3.6 3 .6 4.3 1.4 2 1.2 2.3 4.2 2.1 6.6s-.6 5.2 1 7.2c1.2 1.5 3.2 2 4.5 3.4a17.3 17.3 0 012 3.3c1.9 3.3 5.3 5.4 8.2 8s5.3 6.4 4 10c-1 2.7-3.6 4.3-6.1 5.6a64.9 64.9 0 01-14.6 5.1 3.4 3.4 0 01-1.7.1 3.6 3.6 0 01-1.4-1c-3-2.9-6-5.9-7.4-9.8a10.2 10.2 0 00-1-2.7c-1.7-2.1-5-2-7.2-3.6-2.6-1.7-3.2-5.3-4.9-8s-4.2-4.1-6-6.5c-3-3.8-3.8-9-6-13.5a62.8 62.8 0 01-2.9-5.6 30.4 30.4 0 01-1.3-7.2c-1.4-11.7-5-23.4-2.8-35 .5-2.5 1.3-5 1.6-7.6.6-4.6-.3-9.2.4-13.7a3.7 3.7 0 011.5-3 4 4 0 011.7-.3 118.6 118.6 0 0117.8.4c3 .3 6.3 1 8.1 3.4 1.6 2 1.5 4.9 2 7.4.6 3.2 2.2 4.9 3.9 7.3s.8 5-.5 7.5z"/><path fill="#2f2e41" d="M867.5 688.7c1.6 0 3.3 0 4.5 1 1.6 1.2 1.6 3.5 1.3 5.4a82.4 82.4 0 01-4.2 16l-5.4 15.6a37 37 0 00-1.8 6.9c-.5 4 .3 8 .4 12 0 2-.2 4.2-1.4 5.8-2.3 3-6.7 2.6-10.3 2l-17.7-3a21 21 0 01-4.4-1 28.7 28.7 0 01-4.3-2.4 65.4 65.4 0 00-11-5c-1.6-.7-3.5-1.5-4-3.1-.8-2 .8-4.2 2.8-5s4.1-.6 6.2-.6a46.7 46.7 0 0015.4-2 9.8 9.8 0 004-2.1 10.1 10.1 0 002.4-4.6 70.3 70.3 0 002.7-16c.2-4 0-8 .2-12 0-2.4-.1-10 2-11.7 1.5-1.2 8 2.2 10.2 2.7a50 50 0 0012.4 1.1zM925.8 699.8c1.7 5.8 2 11.8 3.1 17.7s3.1 11.9 7.5 16a9.7 9.7 0 012.2 2.4 5 5 0 01-.8 5.2 13.2 13.2 0 01-4.4 3.4c-11.3 6.2-24 9.3-36.8 10.8a15.4 15.4 0 01-6.8-.2c-2.2-.8-4.1-2.8-4-5a2.5 2.5 0 01.5-1.8 3.6 3.6 0 011.4-.8c4.7-1.9 9.5-4 13.1-7.6s6-9 4.6-13.9a27 27 0 00-3.4-6.4 108.5 108.5 0 01-5-9.7l-4.4-9.2a24.2 24.2 0 01-2.8-8.5 40.4 40.4 0 0016.2-2.6 25.2 25.2 0 006.7-4c1.7-1.4 3.2-4 5.5-2.2 1.9 1.5 3 5.7 4.1 7.8a57.3 57.3 0 013.5 8.6z"/><path fill="#fbbebe" d="M861.3 470.6c.5 3.9 4.2 6.4 7.7 8l-22.4 7.1c1.4-2.8.3-6.1-1.2-9a50.1 50.1 0 00-4-6.4c-.2-.3-.5-.7-.3-1a1.1 1.1 0 01.6-.5c4.7-2 9.4-4.2 14.5-5 1.4-.2 4.2-.8 5.3.7s-.4 4.4-.2 6.1z"/><path d="M861.3 470.6c.5 3.9 4.2 6.4 7.7 8l-22.4 7.1c1.4-2.8.3-6.1-1.2-9a50.1 50.1 0 00-4-6.4c-.2-.3-.5-.7-.3-1a1.1 1.1 0 01.6-.5c4.7-2 9.4-4.2 14.5-5 1.4-.2 4.2-.8 5.3.7s-.4 4.4-.2 6.1z" opacity=".1"/><circle cx="848.3" cy="456.1" r="17.6" fill="#fbbebe"/><path fill="#2f2e41" d="M833 601.1c1.7 2 4.8 2.5 7.4 2 6.1-1 11.2-5.5 17.2-7.2 7.4-2 15.2.6 22.2 3.8s13.9 7 21.5 7.5c-7-15.3-3-33.8-9.6-49.3-1.6-3.8-3.8-7.5-4.2-11.6-.4-5 2.1-10 2.5-15 .4-4.5-1-9-2.3-13.3l-4.8-15.9c-1.8-5.9-3.7-11.9-7.2-17-1.3-1.8-1.7-5.6-3.6-6.7-4.3-2.5-10.8.6-15.4.8s-8.9 3.4-11.6 7.2c-2.9 4-4.5 8.6-6 13.2a126 126 0 00-5.3 21.3l-.4 3.2c-1 10.3.5 20.6.5 31 .1 13-2 26.1-2.4 39.2 0 2.4 0 5 1.5 6.8z"/><path d="M834 555c3.4-.8 6.5-3 9.2-5.5a39 39 0 006.1-7 50.1 50.1 0 005.3-11.1 129.2 129.2 0 007-32.3c.3-3 .3-6.2-1.5-8.6a7.2 7.2 0 00-8.7-2.1 14.6 14.6 0 00-5.3 5.7 74 74 0 00-7.5 13.8c-.8 2.2-1.4 4.5-2.1 6.7a62 62 0 01-2.8 6.3l-.4 3.2c-.9 10.3.5 20.6.6 31z" opacity=".1"/><path fill="#2f2e41" d="M860.1 488.6c1.8 2.4 1.7 5.7 1.5 8.6a129.3 129.3 0 01-7 32.3 49.4 49.4 0 01-5.3 11.2 38.7 38.7 0 01-6.2 7c-3.4 3-7.5 5.8-12.1 5.8a23.4 23.4 0 01-7.6-1.6L786 539c-.4-2.1 1.1-4.6 1.9-6.7l2-5.9c.5-1.6 1.2-3.4 2.7-4.3s3.8.3 5 1.3 2.2 2.3 3.5 3.3c2.3 2 5.3 2.7 8.3 3.3l8.4 2a35.6 35.6 0 009.4 1.2c2.3-7.2 6.8-13.5 9.3-20.7l2.2-6.6c1.8-4.9 4.6-9.4 7.5-13.8 1.4-2.2 2.9-4.5 5.3-5.7a7.2 7.2 0 018.7 2.1zM853.9 460a9 9 0 00-1-3.2 2.8 2.8 0 00-3-1.3c-1.8.5-2.4 3.3-4.3 3.3-1.2.1-2-1.2-2.5-2.3s-.6-2.6-1.5-3.4a5.7 5.7 0 00-2.2-1c-4.3-1.4-8.7-3.9-10-8.1a4.8 4.8 0 01-.3-2.7c.6-2.7 4-3.5 6.5-4.5s5-2.6 7.5-3.9 5.4-2.1 8.2-1.5a42.6 42.6 0 014 1.6c4.2 1.4 9.3.7 12.5 3.7a13 13 0 013 5.3c2.2 6.2 3.7 13.5 0 19-2.3 3.4-4.5 7.2-9 7.6-5 .5-7.1-4.2-8-8.5z"/><g opacity=".1"><path d="M846 454.3c-.3-1.1-.5-2.5-1.4-3.3a5.7 5.7 0 00-2.2-1c-4.3-1.4-8.7-3.9-10.1-8.1a5 5 0 01-.3-2.7 3.6 3.6 0 01.6-1.2c-1.7.7-3 1.6-3.5 3.3a4.8 4.8 0 00.2 2.7c1.5 4.2 5.9 6.7 10.2 8a5.7 5.7 0 012.1 1c1 1 1.2 2.3 1.6 3.5s1.2 2.4 2.5 2.3 1.8-1.1 2.6-2.1c-1-.1-1.9-1.3-2.2-2.4zM864.8 466.5c-5.1.5-7.2-4.2-8-8.5a8.7 8.7 0 00-1-3.3 2.8 2.8 0 00-3-1.3c-1 .3-1.6 1.2-2.2 2a3 3 0 012.2 1.3 9 9 0 011.1 3.3c.8 4.4 2.8 9 8 8.6a8.2 8.2 0 005.3-2.8 7.5 7.5 0 01-2.4.7z"/></g><path fill="#f2f2f2" d="M253.9 382.8c-45.6-8-98.6-6.6-155.7 0a527.5 527.5 0 000-193h155.7a543.8 543.8 0 010 193z"/><path fill="#36345c" d="M153.3 178.8h54.2v17.8h-54.2z"/><path fill="#0ead69" d="M388 433.4h96v13h-96zM388 460.4h96v13h-96zM516 43.4h96v13h-96zM516 70.4h96v13h-96zM132 225.4h96v13h-96zM127.6 721.3l19.1-11.2a46 46 0 00-9.8-11.7l-36.1 11.2 28.3-16.7A46 46 0 0061 733.3c0 25.4 20.6 26.3 46 26.3s46-.9 46-26.3a45.8 45.8 0 00-4-18.7z"/><path d="M132.4 746a35.8 35.8 0 00-6.7-5.3c-3.5-2.3-7.1-4.7-11.2-5.5-3.6-.7-7.3 0-11-.3a25.7 25.7 0 01-16.8-7.7c-2.6-2.7-4.7-6-7.8-8A17 17 0 0067 717a29 29 0 00-3.4.7 45.8 45.8 0 00-2.7 15.6c0 25.4 20.6 26.3 46 26.3 12.3 0 23.5-.2 31.8-3.4l-1.4-2.5a35.9 35.9 0 00-5-7.7z" opacity=".1"/><path fill="#0ead69" d="M597.7 684.6l-25.4-14.9a61.2 61.2 0 0113-15.5l48 14.9-37.6-22a61 61 0 0190.3 53.4c0 33.7-27.3 34.9-61 34.9s-61-1.2-61-34.9a60.8 60.8 0 015.2-24.8z"/><path d="M591.3 717.4a48.6 48.6 0 019-7.1c4.6-3 9.4-6.2 14.8-7.2 4.7-1 9.7-.2 14.5-.4a34 34 0 0022.3-10.3c3.5-3.5 6.2-8 10.4-10.7 4.5-3 10.2-3.6 15.5-2.8a42.6 42.6 0 014.6 1 60.9 60.9 0 013.6 20.6c0 33.7-27.3 34.9-61 34.9-16.4 0-31.2-.3-42.2-4.4l1.9-3.5a48 48 0 016.6-10.1z" opacity=".1"/></svg>
