<svg xmlns="http://www.w3.org/2000/svg" viewBox="0 0 988.7 579.5"><defs><linearGradient id="a" x1="944" y1="726.3" x2="944" y2="160.3" gradientUnits="userSpaceOnUse"><stop offset="0" stop-color="gray" stop-opacity=".3"/><stop offset=".5" stop-color="gray" stop-opacity=".1"/><stop offset="1" stop-color="gray" stop-opacity=".1"/></linearGradient></defs><circle cx="593.5" cy="76.6" r="25.1" fill="none" stroke="#3f3d56" stroke-miterlimit="10"/><path d="M644.8 29.3l-6-6a3.2 3.2 0 00-4.7-.1L596 61l-16.2-16.2a3.2 3.2 0 00-4.5 0l-6.2 6a3.3 3.3 0 000 4.6l24.5 24.7a3.3 3.3 0 004.6 0L644.8 34a3.2 3.2 0 000-4.6z" fill="#0ead69"/><rect y="64.1" width="456" height="52" rx="25.6" fill="#f2f2f2"/><rect x=".6" y="154.2" width="456" height="52" rx="25.6" fill="#f2f2f2"/><rect x="1.1" y="244.3" width="456" height="52" rx="25.6" fill="#f2f2f2"/><rect x="1.7" y="334.4" width="456" height="52" rx="25.6" fill="#f2f2f2"/><rect x="14.3" y="50.6" width="456" height="52" rx="25.6" fill="none" stroke="#3f3d56" stroke-miterlimit="10"/><rect x="14.8" y="140.8" width="456" height="52" rx="25.6" fill="none" stroke="#3f3d56" stroke-miterlimit="10"/><rect x="15.4" y="230.9" width="456" height="52" rx="25.6" fill="none" stroke="#3f3d56" stroke-miterlimit="10"/><rect x="16" y="321" width="456" height="52" rx="25.6" fill="none" stroke="#3f3d56" stroke-miterlimit="10"/><circle cx="593.5" cy="167.2" r="25.1" fill="none" stroke="#3f3d56" stroke-miterlimit="10"/><circle cx="593.5" cy="257.7" r="25.1" fill="none" stroke="#3f3d56" stroke-miterlimit="10"/><circle cx="593.5" cy="348.2" r="25.1" fill="none" stroke="#3f3d56" stroke-miterlimit="10"/><path d="M644.8 120.7l-6-6.1a3.2 3.2 0 00-4.7 0L596 152.4l-16.2-16.3a3.2 3.2 0 00-4.5 0l-6.2 6a3.3 3.3 0 000 4.7l24.5 24.7a3.3 3.3 0 004.6 0l46.6-46.2a3.2 3.2 0 000-4.6zM644.8 303.5l-6-6.2a3.2 3.2 0 00-4.7 0L596 335.2l-16.2-16.3a3.2 3.2 0 00-4.5 0l-6.2 6a3.3 3.3 0 000 4.6l24.5 24.7a3.3 3.3 0 004.6 0l46.6-46.2a3.2 3.2 0 000-4.5z" fill="#0ead69"/><ellipse cx="809.2" cy="555.5" rx="154" ry="24" fill="#f2f2f2"/><ellipse cx="834.2" cy="546.5" rx="154" ry="24" fill="none" stroke="#3f3d56" stroke-miterlimit="10"/><path d="M1015.7 270.1l-1.3-1.5c3.6-4 7.3-8.3 7.3-13.5 0-6.4-5.7-11.3-7.9-17.4-2.8-8.2 1.2-17 2.8-25.6a48 48 0 00-10.4-39.5c-1.7-2-3.6-3.9-6-4.7-3.9-1.1-7.9.5-11.8 1-13 1.6-24.8-9.6-37.9-8.6a7 7 0 00-2.5.6c-1.7.8-2.6 2.6-3.6 4.1-4 6-10.9 9-17.6 12a9.2 9.2 0 00-2.4 1l-6 3.1c-12.8 7.6-10.9 18.2-3.4 24.7-1.4 7.4-9 13.8-7.6 21.4 1 5.9 7.1 10 8.3 15.8.7 3.4-.4 6.7-1.9 10-14.3 3.2-30.5 9.3-31.7 20-2.2 18.8-8.8 70.5-8.8 70.5s-7.7 41.4 21.4 21.8l-.4 1.1a241 241 0 00-10.6 48.8c-.3 2.5-1 4.5-2 5-.4.3.4.7 2 1.1l-.5 2.1a198.4 198.4 0 00-6.1 37 260 260 0 01-4.6 33c-6.9 34.6 0 79 0 79l15 70.7 2.6 12.1a18 18 0 006.1 4.4 94.3 94.3 0 012.1 13.2l.1 1.5a6.3 6.3 0 00-4.5 2.8c-5.3 7.5.8 13.5-19.8 28.6-5.4 3.9-8 7.4-8.6 10.4-.7 3.2.8 5.9 3.5 7.6a13 13 0 001.5.8l.8.4.8.3.9.3.9.2.9.2 1 .2h.9l.1.1h1l.8.1H881l.9-.2 1-.1h.1l1-.2a22.1 22.1 0 002-.6c.3 0 .6-.2.8-.3h.3l.8-.4c13.8-6 42.1-21.8 42.1-21.8v-1-.4-.4-.2-.4-.6c-.2-6.6-.8-21.7-3.8-21.1-1 .2-1.7 1.6-2.5 3.3 0-.3-.2-.5-.3-.7-3-5.6-7.1-15.3-7.6-24.7a44.2 44.2 0 006.5-5.8s-1.5-6.5-2.8-13.3c-1.1-6-2-12.1-1.7-14.6.7-5.2-9.2-45.9-9.2-45.9s1-9 3-21.4c4-24.1 12-61.5 23.7-72l.8-.7s8.4 1.5 15.3 49l2 21a122.6 122.6 0 003 17.4 91.5 91.5 0 011.9 27.8c-.9 12.5-1.2 27.1-1.4 37.4l-.1 13a28.9 28.9 0 004.6 3.2v7a5.7 5.7 0 01-1.6 3.9 10.7 10.7 0 00-2.4 4.2 31.3 31.3 0 00-3 12.6c-1.5 20.4-2.2 18.1-2.2 18.1a26.8 26.8 0 00-1.8 6.9V707.5l.1.3.1.6a8.4 8.4 0 00.3.7v.2l.2.5v.1a6.1 6.1 0 00.5.7 5.7 5.7 0 00.3.5l.1.1a5.5 5.5 0 00.5.5 5.6 5.6 0 00.6.4 6.1 6.1 0 00.7.5h.1a7 7 0 00.7.3h.2a8.3 8.3 0 00.8.3l1 .1h.1a12.9 12.9 0 002.4 0h1.5c16-2.3 23.7-3.9 23-12.9-.5-5.4-1.8-13.3-2.8-18.8a28.2 28.2 0 00-2.6-7.9l.1-1.3c.3-3.7.3-8.2-.9-11.1l.4-6.6a21 21 0 0010.3-6.2l.5-11.4c.5-10 1.5-23.8 3.4-29.3 3-9 0-40.7 0-40.7s-11.5-54.2-.8-77.5a71 71 0 00.3-61.3 3.1 3.1 0 00.5-.5s-2.3-1.5-1.6-18.8a99.2 99.2 0 00-5.1-32.6 79.7 79.7 0 009 3.2c17.6 5.3 19-14.3 19-14.3l3.9-29.3 4.5-43.8c1.3-3.5 3-12-5.9-22zm-77.7-29l-.1 1.5a19.5 19.5 0 01-1 4.5 30.4 30.4 0 001-6zM984.2 348l.8 1.5-2-1a43.3 43.3 0 013.5-10.3 72.7 72.7 0 004.7-11.8 118 118 0 00.7 14c1.5 12.1-7.7 7.6-7.7 7.6z" transform="translate(-105.9 -160.3)" fill="url(#a)"/><path d="M813.5 24c-2.5 1.7-5 3.6-6 6.5-1.3 4.5 2.2 9.1 2.6 13.9.6 8.6-9.2 15.8-7.8 24.3 1 5.9 7 9.9 8.2 15.7 1.7 8.5-7.5 16-6.8 24.7.4 4.6 3.6 8.5 7.2 11.4a35.2 35.2 0 0017.7 7.2c-.5-7.4-6-14.1-5-21.5.6-5 4.2-9.2 6.2-13.8 3.6-8.2 2.5-17.6.3-26.3s-5.3-17.2-5.4-26.1c-.1-5.4 2.4-13.3.6-18.4-2.3-6.2-7.7-.4-11.8 2.4z" fill="#3f3d56"/><path d="M813.5 24.2c-2.5 1.7-5 3.6-6 6.5-1.3 4.5 2.2 9.1 2.6 13.9.6 8.6-9.2 15.8-7.8 24.3 1 6 7 9.9 8.2 15.7 1.7 8.6-7.5 16-6.8 24.7.4 4.6 3.6 8.5 7.2 11.4a35.2 35.2 0 0017.7 7.2c-.5-7.4-6-14.1-5-21.5.6-5 4.2-9.2 6.2-13.8 3.6-8.2 2.5-17.6.3-26.3s-5.3-17.2-5.4-26.1c-.1-5.4 2.4-13.3.6-18.4-2.3-6.2-7.7-.4-11.8 2.4z" opacity=".1"/><path d="M820.6 523.9l-6.7 6.7s-23.9 12.7-21-4.5a61.8 61.8 0 00.6-15.4 96 96 0 00-4.2-21.2l22.4-4.5c-3.8 11.7 2.4 26.5 6.2 34 1.5 3 2.7 4.9 2.7 4.9zM871.5 510.3a68.3 68.3 0 01-.8 6.8s-18.7 12.7-20.2-1.5c-1-9.2 1.2-13.4 2.9-15.2a5.7 5.7 0 001.6-3.9v-16.7l16.4 5.2-.7 14.2a29 29 0 01.8 11z" fill="#ffb9b9"/><path d="M820.6 523.9l-6.7 6.7s-23.9 12.7-21-4.5a61.8 61.8 0 00.6-15.4c5.2-.8 11.4 5 11.4 5 8.8 12.3 11.1 7.6 13 3.3 1.5 3 2.7 4.9 2.7 4.9z" opacity=".1"/><path d="M805 517.1s-10.5-9.7-15.7-2.2.7 13.4-19.5 28.4 0 24.6 13.5 18.6 41-21.6 41-21.6 0-24.7-3.7-24-3 18.8-15.7.8z" fill="#3f3d56"/><path d="M871.5 510.3a68.3 68.3 0 01-.8 6.8s-18.7 12.7-20.2-1.5c-1-9.2 1.2-13.4 2.9-15.2a4.5 4.5 0 014.6-.4c3-1.4 6.2.9 9 3.7a26.4 26.4 0 014.5 6.6z" opacity=".1"/><path d="M858 501.5s-8.3-4.5-9.8 15.6-2.2 18-2.2 18-7.5 17.9 8.2 15.6 23.2-3.7 22.4-12.6a245 245 0 00-2.6-18.7 27.4 27.4 0 00-7-14.2c-2.8-2.9-6-5-9-3.7zM884.8 405.9s3 31.3 0 40.3c-1.8 5.4-2.8 19.1-3.3 29l-.4 11.3c-14.2 15-30.6 0-30.6 0l.1-13a746 746 0 011.4-37 92 92 0 00-1.9-27.6 123.4 123.4 0 01-2.9-17.2l-2-21c-6.7-47-14.9-48.5-14.9-48.5l-.8.7c-11.5 10.5-19.1 47.5-23 71.5-2 12.3-3 21.2-3 21.2s9.6 40.3 8.9 45.5c-.3 2.5.6 8.6 1.7 14.5 1.3 6.7 2.8 13.2 2.8 13.2-18.7 20.1-31.4 4.4-31.4 4.4l-2.5-12-14.7-70.1s-6.7-44 0-78.4a261.8 261.8 0 004.5-32.7 199.6 199.6 0 016-36.6q1.3-5.4 3-10.6s28-4.9 54.4-4.9c19.8 0 38.7 2.7 44.2 12.4l3.4 6.6a71.5 71.5 0 01.3 62c-10.5 23.2.7 77 .7 77z" fill="#3f3d56"/><path d="M822.1 134.8s-39.6-40.3-9.7-37.3c6.8.6 11.4-.6 14.4-2.8 3.5-2.6 5-6.6 5.3-10.7.8-8.3-2.5-17.2-2.5-17.2s40.3-32 32 8.3a68.7 68.7 0 00-1.5 12.4c-.1 8.6 2.7 11.9 6.7 13.2 6.6 2.3 16.5-1 21 6.5 8.2 13.4-65.7 27.6-65.7 27.6z" fill="#ffb9b9"/><path d="M822.1 134.8s-39.6-40.3-9.7-37.3c6.8.6 11.4-.6 14.4-2.8 3.5-2.6 5-6.6 5.3-10.7.8-8.3-2.5-17.2-2.5-17.2s40.3-32 32 8.3a68.7 68.7 0 00-1.5 12.4c-.1 8.6 2.7 11.9 6.7 13.2 6.6 2.3 16.5-1 21 6.5 8.2 13.4-65.7 27.6-65.7 27.6z" opacity=".1"/><path d="M881.9 55.6a32.1 32.1 0 01-64.3 0v-1.8a32.1 32.1 0 0164.3 1.8z" fill="#ffb9b9"/><path d="M822.1 134.8s-39.6-40.3-9.7-37.3c6.8.6 11.4-.6 14.4-2.8-5.8 9.5-12.3 26.8 17 25.2 26.7-1.5 26.3-12.2 23-19.2 6.6 2.3 16.5-1 21 6.5 8.2 13.4-65.7 27.6-65.7 27.6zM884.8 270c-6.8 8.8-93.4-2.8-106-6.6q1.3-5.4 3-10.6s28-4.9 54.4-4.9c19.8 0 38.7 2.7 44.2 12.4l3.4 6.6c.5 2.7 1 3 1 3z" opacity=".1"/><path d="M830.3 90.7s-50.4 4.1-52.6 23.6L769 184s-7.5 41 20.9 21.6l-.4 1.1a242.2 242.2 0 00-10.4 48.4c-.3 2.5-.8 4.4-1.9 5-3.7 2.3 100 17.2 107.5 7.5 0 0-2.2-1.5-1.5-18.7s-6-35-6-35-5.9-18 2.3-35.1 5.2-22.5 5.2-22.5l28.4-21.6s6.1-10.5-5-23.5a38.8 38.8 0 00-26.7-13.1l-19.6-1.4s21.4 23-18.9 25.3-12.7-31.4-12.7-31.4z" fill="#575a89"/><path d="M796.7 131.8s1.5 12-1.5 15.7-3.7 20.9 0 31.4M829.5 323c-11.5 10.4-19.1 47.4-23 71.4-5.5-33.4 17.1-88.6 17.1-88.6zM816.9 488.8c-18.7 20.1-31.4 4.4-31.4 4.4l-2.5-12c7 3.7 19 6.6 31.1-5.6 1.3 6.7 2.8 13.2 2.8 13.2zM881.5 475.3l-.4 11.2c-14.2 15-30.6 0-30.6 0l.1-13c6.2 4 17.2 8.3 31 1.8z" opacity=".1"/><rect x="800.5" y="157.2" width="50.8" height="20.9" rx="3.8" fill="#cdd0db"/><rect x="800.5" y="157.2" width="50.8" height="20.9" rx="3.8" opacity=".1"/><rect x="800.5" y="157.9" width="50.8" height="20.9" rx="3.8" fill="#3f3d56"/><circle cx="840.4" cy="168" r="2.2" fill="#9da7c0"/><path d="M778.8 190.3a14.5 14.5 0 018.5-8.9 13.2 13.2 0 007.2-6.5c3-6.5 8.2-13.2 21.6-8.7s-3.7 7.4-3.7 7.4 30.6-4.5 18.7 4.5-27 14.2-27 14.2l-7.3 7.8a11 11 0 01-16.4-.3 9.5 9.5 0 01-1.6-9.5z" opacity=".1"/><path d="M778 188.8a14.5 14.5 0 018.5-8.9 13.2 13.2 0 007.3-6.5c3-6.5 8.1-13.2 21.6-8.7s-3.7 7.4-3.7 7.4 30.6-4.4 18.6 4.5-26.9 14.2-26.9 14.2l-7.3 7.8a11 11 0 01-16.4-.3 9.5 9.5 0 01-1.6-9.5z" fill="#ffb9b9"/><path d="M883.3 204.2l-5.2 12.7-6.7-4.9-18.7-13.7L840 190c-17.9-13.5 0-15.7 0-15.7-6.7-3 0-6 0-6 24-5.2 19.4 14.2 19.4 14.2l15.2 7.8 5 2.6z" opacity=".1"/><path d="M884.8 202.7l-5.2 12.7-6.7-4.9-18.7-13.7-12.7-8.2c-17.9-13.5 0-15.7 0-15.7-6.7-3 0-6 0-6 24-5.2 19.4 14.2 19.4 14.2l15.2 7.8 5 2.6z" fill="#ffb9b9"/><path d="M884.8 202.7l-5.2 12.7-6.7-4.9c6 .2 13.2-2.7 3.2-21.6l5 2.6z" opacity=".1"/><path d="M912.5 127.3l1.4 5.9-4.4 43.4-3.8 29.1s-1.4 19.5-18.6 14.2-18.7-10.4-18.7-10.4 24.7 8.2 9-21c0 0 9 4.5 7.4-7.4s0-32.9 0-32.9z" fill="#575a89"/><path d="M881.9 55.6a32.1 32.1 0 01-25 31.4c-1.1-3.2-1.9-6.2-1.1-9.4 1.5-6 8.5-10.5 7.8-16.8a4.1 4.1 0 00-.7-2c-1.6-2-4.8-1-7.4-.5a14 14 0 01-15.6-9.6 21.8 21.8 0 01-22.2 5.1 32.1 32.1 0 0164.2 1.8z" opacity=".1"/><path d="M840.6 47.2a14 14 0 0015.7 9.6c2.5-.5 5.7-1.5 7.3.6a4 4 0 01.7 2c.8 6.2-6.2 10.6-7.8 16.7-1.5 6.3 3 12.4 4 18.8.6 3.5 0 7 0 10.6s.9 7.3 3.5 9.7 7.5 2.4 9.2-.7c8.4 4.5 5 18.2 11.5 25.3 3.5 3.9 9.3 4.8 14.5 4.3a6.1 6.1 0 003.4-1 6 6 0 001.7-3.2 25.5 25.5 0 00-.7-15.1c-.8-2.4-2-4.7-1.7-7.1a10.5 10.5 0 012.6-5.1c4-5 9.5-9.8 9.4-16.2 0-6.3-5.5-11.2-7.6-17.2-2.8-8.2 1-16.9 2.7-25.4a48.2 48.2 0 00-10.2-39.2c-1.6-2-3.5-3.8-6-4.6-3.6-1.2-7.5.5-11.4 1-12.6 1.5-24.2-9.6-36.9-8.6a6.8 6.8 0 00-2.4.6c-1.7.8-2.6 2.5-3.6 4-5.6 8.5-16.7 10.9-25.3 16-25.4 15.3 8 42.8 27.4 24.2z" fill="#3f3d56"/><path d="M783.3 559c-8.7 3.8-20.3 1.1-21.8-5.4-1.9 8.6 11.8 12.8 21.8 8.3 13.4-6 41-21.6 41-21.6v-3c-.8.5-27.8 15.8-41 21.7zM876.6 537.6c-.9 6.7-8.3 8.2-22.4 10.2-7.1 1-9.5-2.2-9.9-6-.5 4.9 1 10.2 10 9 15.6-2.3 23-3.8 22.3-12.7v-.5z" fill="#fff" opacity=".3"/><g opacity=".1"><path d="M902.2 140.8c-5.2.5-11-.4-14.5-4.3-6.4-7-3-20.8-11.5-25.2-1.7 3-6.6 3-9.2.6s-3.4-6.2-3.5-9.7.5-7.1 0-10.6c-1-6.4-5.5-12.5-4-18.8 1.5-6 8.6-10.5 7.8-16.8a4 4 0 00-.7-2c-1.6-2-4.8-1-7.4-.4a14 14 0 01-15.6-9.7c-17.3 16.7-45.8-3.6-33.6-19-19 15.6 12.2 39.8 30.6 22a14 14 0 0015.7 9.6c2.5-.5 5.7-1.5 7.3.6a4 4 0 01.7 2c.8 6.2-6.2 10.6-7.8 16.7-1.5 6.3 3 12.4 4 18.8.6 3.5 0 7 0 10.6s.9 7.3 3.5 9.7 7.5 2.4 9.2-.7c8.4 4.5 5 18.2 11.5 25.3 3.5 3.9 9.3 4.8 14.5 4.3a6.1 6.1 0 003.4-1 4.9 4.9 0 001.4-2.3 10.5 10.5 0 01-1.8.3zM841.5 3.8l.7-1.2h-.1c-1.7.9-2.6 2.6-3.6 4.2l-1.1 1.5a21.3 21.3 0 004-4.5z"/></g><path d="M800.5 212.7s-2 6.7 10.7 9.7-10.7-9.7-10.7-9.7zM794.9 232.6s-6.5 4.7 9.1 13-9.1-13-9.1-13zM780.3 311.5s17.6-5 20-12.4-20 12.4-20 12.4zM780.3 406.1s7.6 3.7 12.4 3.2-12.4-3.2-12.4-3.2zM783 416.6s3.4 1.7 9.7 2-9.7-2-9.7-2z" opacity=".1"/><path d="M911.7 445.2a15.5 15.5 0 102-29.8l.5 8-3.8-6.8a15.5 15.5 0 00-8 8.7 15.2 15.2 0 00-.9 4.2 15.5 15.5 0 0010.2 15.7z" fill="#57b894"/><path d="M930.4 537.9c-1.3-6.8 4.5-12.8 10.2-16.7s12.4-7.8 14.3-14.5c2.8-9.5-5.5-18.3-12-25.8a93.5 93.5 0 01-12.3-18.3 25.2 25.2 0 01-3-8.4c-.5-4.2.9-8.4 2.2-12.4q6.9-20.2 14.7-40" fill="none" stroke="#3f3d56" stroke-miterlimit="10"/><path d="M912.4 443.1a15.5 15.5 0 102-29.7l.4 8-3.8-6.9a15.5 15.5 0 00-8 8.7 15.2 15.2 0 00-.8 4.3 15.5 15.5 0 0010.2 15.6z" fill="none" stroke="#3f3d56" stroke-miterlimit="10"/><path d="M928.5 399a15.5 15.5 0 0111.2-9.9l1.3 7.6 2.4-8a15.5 15.5 0 11-14.9 10.3z" fill="#57b894"/><path d="M929.4 396.2a15.5 15.5 0 0111.2-9.8l1.2 7.6 2.4-8a15.5 15.5 0 11-14.8 10.2z" fill="none" stroke="#3f3d56" stroke-miterlimit="10"/><path d="M940.2 481a15.5 15.5 0 0013.7-27.6l-1.8 6.2-1.3-7.7a15.5 15.5 0 10-10.6 29.2z" fill="#57b894"/><path d="M941 478.3a15.5 15.5 0 0013.7-27.6l-1.9 6-1.3-7.6a.3.3 0 000 0 15.5 15.5 0 10-10.6 29.2z" fill="none" stroke="#3f3d56" stroke-miterlimit="10"/><path d="M924 506.8a15.5 15.5 0 103-12.1l7 10.4-9.5-5.5a15.4 15.4 0 00-.5 7.2z" fill="#57b894"/><path d="M924.6 504.8a15.5 15.5 0 103-12.2l7 10.4-9.5-5.5a15.4 15.4 0 00-.5 7.3z" fill="none" stroke="#3f3d56" stroke-miterlimit="10"/><path d="M908.9 547.1s13.7-5.4 17.8-8.3 21-6.5 22.1-1.7 20.6 23.4 5.1 23.5-36 2.6-40 0-5-13.5-5-13.5z" fill="#656380"/><path d="M954.2 559c-15.5.1-36 2.5-40 0-3.2-1.9-4.5-8.7-4.9-12l-.4.1s.8 11 5 13.6 24.6 0 40 0c4.5 0 6-1.7 6-4-.7 1.4-2.4 2.3-5.7 2.3z" opacity=".2"/></svg>
