<svg width="701" height="337" viewBox="0 0 701 337" fill="none" xmlns="http://www.w3.org/2000/svg">
<rect x="0.5" y="0.5" width="700" height="336" rx="4.5" fill="white" stroke="#C4C4C4"/>
<rect x="35" y="212" width="633" height="50" fill="#F7F8FA"/>
<path d="M1 5C1 2.79086 2.79086 1 5 1H696C698.209 1 700 2.79086 700 5V52H1V5Z" fill="#F7F8FA"/>
<rect x="35" y="19" width="300" height="14" rx="7" fill="#25292E"/>
<rect x="35" y="75" width="633" height="14" rx="7" fill="#5F656D"/>
<rect x="35.5" y="112.5" width="632" height="200" rx="3.5" stroke="#C4C4C4"/>
<line x1="175.5" y1="112" x2="175.5" y2="312" stroke="#C4C4C4"/>
<line x1="336.5" y1="112" x2="336.5" y2="312" stroke="#C4C4C4"/>
<line x1="501.5" y1="112" x2="501.5" y2="312" stroke="#C4C4C4"/>
<line x1="35" y1="161.5" x2="668" y2="161.5" stroke="#C4C4C4"/>
<line x1="35" y1="212.5" x2="668.001" y2="212.51" stroke="#C4C4C4"/>
<line x1="35" y1="261.5" x2="668" y2="261.5" stroke="#C4C4C4"/>
<path d="M68.528 128.544H73.304L79.232 144H74.528L73.232 140.712H68.576L67.304 144H62.6L68.528 128.544ZM72.632 137.472L70.904 132.936L69.176 137.472H72.632ZM80.3066 132.624H84.6506L84.7706 133.536C85.2666 133.248 85.8666 133 86.5706 132.792C87.2906 132.568 88.0106 132.432 88.7306 132.384V135.744C88.0586 135.792 87.3466 135.896 86.5946 136.056C85.8426 136.216 85.2506 136.4 84.8186 136.608V144H80.3066V132.624ZM94.8114 144.24C93.3234 144.24 92.2274 143.872 91.5234 143.136C90.8194 142.384 90.4674 141.328 90.4674 139.968V135.96H88.9794V132.624H90.4674V130.296L94.9794 129.216V132.624H97.5954L97.4274 135.96H94.9794V139.632C94.9794 140.112 95.0914 140.456 95.3154 140.664C95.5554 140.856 95.9314 140.952 96.4434 140.952C96.9074 140.952 97.3794 140.872 97.8594 140.712V143.712C97.0114 144.064 95.9954 144.24 94.8114 144.24ZM100.353 127.848H105.225V131.112H100.353V127.848ZM100.713 135.912H99.0566L99.4406 132.624H105.225V144H100.713V135.912ZM107.881 135.96H106.417V132.624H107.881V131.88C107.881 130.552 108.257 129.48 109.009 128.664C109.777 127.848 110.873 127.44 112.297 127.44C113.449 127.44 114.465 127.624 115.345 127.992V130.92C114.849 130.744 114.369 130.656 113.905 130.656C113.345 130.656 112.953 130.76 112.729 130.968C112.505 131.176 112.393 131.512 112.393 131.976V132.624H115.081L114.889 135.96H112.393V144H107.881V135.96ZM118.312 144.24C117.144 144.24 116.176 143.936 115.408 143.328C114.656 142.704 114.28 141.792 114.28 140.592C114.28 139.376 114.68 138.44 115.48 137.784C116.296 137.128 117.504 136.8 119.104 136.8H122.056V136.584C122.056 136.136 121.864 135.808 121.48 135.6C121.112 135.392 120.472 135.288 119.56 135.288C118.248 135.288 116.952 135.488 115.672 135.888V133.176C116.264 132.936 116.992 132.744 117.856 132.6C118.72 132.456 119.592 132.384 120.472 132.384C122.328 132.384 123.768 132.768 124.792 133.536C125.832 134.288 126.352 135.44 126.352 136.992V144H122.416L122.2 143.088C121.336 143.856 120.04 144.24 118.312 144.24ZM119.848 141.6C120.76 141.6 121.496 141.296 122.056 140.688V139.272H119.872C119.36 139.272 118.984 139.368 118.744 139.56C118.504 139.752 118.384 140.048 118.384 140.448C118.384 141.216 118.872 141.6 119.848 141.6ZM134.616 144.24C132.504 144.24 130.856 143.744 129.672 142.752C128.504 141.744 127.92 140.264 127.92 138.312C127.92 136.36 128.52 134.888 129.72 133.896C130.92 132.888 132.56 132.384 134.64 132.384C135.504 132.384 136.264 132.448 136.92 132.576C137.592 132.688 138.232 132.888 138.84 133.176V136.344C137.896 135.896 136.824 135.672 135.624 135.672C134.568 135.672 133.784 135.872 133.272 136.272C132.776 136.672 132.528 137.352 132.528 138.312C132.528 139.24 132.776 139.912 133.272 140.328C133.768 140.744 134.552 140.952 135.624 140.952C136.76 140.952 137.84 140.688 138.864 140.16V143.472C137.728 143.984 136.312 144.24 134.616 144.24ZM144.804 144.24C143.316 144.24 142.22 143.872 141.516 143.136C140.812 142.384 140.46 141.328 140.46 139.968V135.96H138.972V132.624H140.46V130.296L144.972 129.216V132.624H147.588L147.42 135.96H144.972V139.632C144.972 140.112 145.084 140.456 145.308 140.664C145.548 140.856 145.924 140.952 146.436 140.952C146.9 140.952 147.372 140.872 147.852 140.712V143.712C147.004 144.064 145.988 144.24 144.804 144.24Z" fill="black"/>
<path d="M78.064 196.24C76.912 196.24 75.952 195.944 75.184 195.352C74.416 194.744 74.032 193.88 74.032 192.76C74.032 191.64 74.408 190.76 75.16 190.12C75.928 189.464 77.072 189.136 78.592 189.136H82.24V188.632C82.24 188.072 82.152 187.64 81.976 187.336C81.816 187.016 81.512 186.784 81.064 186.64C80.616 186.496 79.976 186.424 79.144 186.424C77.8 186.424 76.544 186.624 75.376 187.024V185.08C75.92 184.872 76.56 184.704 77.296 184.576C78.032 184.448 78.808 184.384 79.624 184.384C81.32 184.384 82.592 184.728 83.44 185.416C84.304 186.104 84.736 187.192 84.736 188.68V196H82.504L82.336 194.848C81.856 195.312 81.272 195.664 80.584 195.904C79.896 196.128 79.056 196.24 78.064 196.24ZM78.76 194.368C79.512 194.368 80.184 194.24 80.776 193.984C81.368 193.728 81.856 193.368 82.24 192.904V190.912H78.64C77.872 190.912 77.312 191.056 76.96 191.344C76.624 191.632 76.456 192.088 76.456 192.712C76.456 193.288 76.648 193.712 77.032 193.984C77.416 194.24 77.992 194.368 78.76 194.368ZM87.637 184.624H89.893L90.037 185.752C90.565 185.288 91.133 184.944 91.741 184.72C92.349 184.496 93.061 184.384 93.877 184.384C95.573 184.384 96.861 184.84 97.741 185.752C98.621 186.664 99.061 188.12 99.061 190.12C99.061 192.136 98.597 193.664 97.669 194.704C96.741 195.728 95.445 196.24 93.781 196.24C92.405 196.24 91.229 195.92 90.253 195.28V201.184H87.637V184.624ZM93.109 194.272C94.229 194.272 95.061 193.928 95.605 193.24C96.149 192.552 96.421 191.504 96.421 190.096C96.421 188.752 96.173 187.8 95.677 187.24C95.181 186.664 94.349 186.376 93.181 186.376C92.013 186.376 91.037 186.776 90.253 187.576V193.264C91.021 193.936 91.973 194.272 93.109 194.272ZM101.606 184.624H103.862L104.006 185.752C104.534 185.288 105.102 184.944 105.71 184.72C106.318 184.496 107.03 184.384 107.846 184.384C109.542 184.384 110.83 184.84 111.71 185.752C112.59 186.664 113.03 188.12 113.03 190.12C113.03 192.136 112.566 193.664 111.638 194.704C110.71 195.728 109.414 196.24 107.75 196.24C106.374 196.24 105.198 195.92 104.222 195.28V201.184H101.606V184.624ZM107.078 194.272C108.198 194.272 109.03 193.928 109.574 193.24C110.118 192.552 110.39 191.504 110.39 190.096C110.39 188.752 110.142 187.8 109.646 187.24C109.15 186.664 108.318 186.376 107.15 186.376C105.982 186.376 105.006 186.776 104.222 187.576V193.264C104.99 193.936 105.942 194.272 107.078 194.272ZM115.095 193.96H117.303V196H115.095V193.96ZM121.328 180.088H124.184V182.248H121.328V180.088ZM120.488 201.616C119.56 201.616 118.768 201.488 118.112 201.232V199.336C118.608 199.496 119.096 199.576 119.576 199.576C120.328 199.576 120.848 199.44 121.136 199.168C121.44 198.912 121.592 198.464 121.592 197.824V186.616H119.864L120.104 184.624H124.184V198.064C124.184 199.168 123.864 200.032 123.224 200.656C122.6 201.296 121.688 201.616 120.488 201.616ZM130.992 196.24C130.224 196.24 129.48 196.184 128.76 196.072C128.04 195.976 127.448 195.84 126.984 195.664V193.456C127.512 193.664 128.096 193.824 128.736 193.936C129.392 194.048 130.032 194.104 130.656 194.104C131.584 194.104 132.232 194.024 132.6 193.864C132.968 193.704 133.152 193.392 133.152 192.928C133.152 192.512 132.984 192.208 132.648 192.016C132.312 191.808 131.68 191.56 130.752 191.272L130.032 191.032C128.88 190.648 128.04 190.224 127.512 189.76C126.984 189.28 126.72 188.576 126.72 187.648C126.72 186.576 127.104 185.768 127.872 185.224C128.64 184.664 129.84 184.384 131.472 184.384C132.096 184.384 132.704 184.432 133.296 184.528C133.904 184.624 134.424 184.744 134.856 184.888V187.072C134.424 186.896 133.936 186.76 133.392 186.664C132.864 186.568 132.36 186.52 131.88 186.52C131 186.52 130.36 186.6 129.96 186.76C129.56 186.904 129.36 187.184 129.36 187.6C129.36 187.968 129.512 188.248 129.816 188.44C130.12 188.616 130.72 188.848 131.616 189.136L132.144 189.304C133.072 189.592 133.792 189.888 134.304 190.192C134.816 190.48 135.184 190.84 135.408 191.272C135.648 191.688 135.768 192.232 135.768 192.904C135.768 195.128 134.176 196.24 130.992 196.24Z" fill="black"/>
<path d="M70.064 242.24C68.912 242.24 67.952 241.944 67.184 241.352C66.416 240.744 66.032 239.88 66.032 238.76C66.032 237.64 66.408 236.76 67.16 236.12C67.928 235.464 69.072 235.136 70.592 235.136H74.24V234.632C74.24 234.072 74.152 233.64 73.976 233.336C73.816 233.016 73.512 232.784 73.064 232.64C72.616 232.496 71.976 232.424 71.144 232.424C69.8 232.424 68.544 232.624 67.376 233.024V231.08C67.92 230.872 68.56 230.704 69.296 230.576C70.032 230.448 70.808 230.384 71.624 230.384C73.32 230.384 74.592 230.728 75.44 231.416C76.304 232.104 76.736 233.192 76.736 234.68V242H74.504L74.336 240.848C73.856 241.312 73.272 241.664 72.584 241.904C71.896 242.128 71.056 242.24 70.064 242.24ZM70.76 240.368C71.512 240.368 72.184 240.24 72.776 239.984C73.368 239.728 73.856 239.368 74.24 238.904V236.912H70.64C69.872 236.912 69.312 237.056 68.96 237.344C68.624 237.632 68.456 238.088 68.456 238.712C68.456 239.288 68.648 239.712 69.032 239.984C69.416 240.24 69.992 240.368 70.76 240.368ZM79.637 230.624H81.893L82.037 231.752C82.565 231.288 83.133 230.944 83.741 230.72C84.349 230.496 85.061 230.384 85.877 230.384C87.573 230.384 88.861 230.84 89.741 231.752C90.621 232.664 91.061 234.12 91.061 236.12C91.061 238.136 90.597 239.664 89.669 240.704C88.741 241.728 87.445 242.24 85.781 242.24C84.405 242.24 83.229 241.92 82.253 241.28V247.184H79.637V230.624ZM85.109 240.272C86.229 240.272 87.061 239.928 87.605 239.24C88.149 238.552 88.421 237.504 88.421 236.096C88.421 234.752 88.173 233.8 87.677 233.24C87.181 232.664 86.349 232.376 85.181 232.376C84.013 232.376 83.037 232.776 82.253 233.576V239.264C83.021 239.936 83.973 240.272 85.109 240.272ZM93.6058 230.624H95.8618L96.0058 231.752C96.5338 231.288 97.1018 230.944 97.7098 230.72C98.3178 230.496 99.0298 230.384 99.8458 230.384C101.542 230.384 102.83 230.84 103.71 231.752C104.59 232.664 105.03 234.12 105.03 236.12C105.03 238.136 104.566 239.664 103.638 240.704C102.71 241.728 101.414 242.24 99.7498 242.24C98.3738 242.24 97.1978 241.92 96.2218 241.28V247.184H93.6058V230.624ZM99.0778 240.272C100.198 240.272 101.03 239.928 101.574 239.24C102.118 238.552 102.39 237.504 102.39 236.096C102.39 234.752 102.142 233.8 101.646 233.24C101.15 232.664 100.318 232.376 99.1497 232.376C97.9818 232.376 97.0058 232.776 96.2218 233.576V239.264C96.9898 239.936 97.9418 240.272 99.0778 240.272ZM107.095 239.96H109.303V242H107.095V239.96ZM117.456 242.24C115.456 242.24 113.944 241.736 112.92 240.728C111.896 239.72 111.384 238.248 111.384 236.312C111.384 234.36 111.936 232.888 113.04 231.896C114.144 230.888 115.664 230.384 117.6 230.384C118.368 230.384 119.016 230.44 119.544 230.552C120.088 230.664 120.616 230.84 121.128 231.08V233.024C120.296 232.608 119.288 232.4 118.104 232.4C116.744 232.4 115.72 232.704 115.032 233.312C114.36 233.92 114.024 234.92 114.024 236.312C114.024 237.688 114.336 238.688 114.96 239.312C115.6 239.936 116.632 240.248 118.056 240.248C119.192 240.248 120.224 240.032 121.152 239.6V241.592C120.096 242.024 118.864 242.24 117.456 242.24ZM127.492 242.24C126.724 242.24 125.98 242.184 125.26 242.072C124.54 241.976 123.948 241.84 123.484 241.664V239.456C124.012 239.664 124.596 239.824 125.236 239.936C125.892 240.048 126.532 240.104 127.156 240.104C128.084 240.104 128.732 240.024 129.1 239.864C129.468 239.704 129.652 239.392 129.652 238.928C129.652 238.512 129.484 238.208 129.148 238.016C128.812 237.808 128.18 237.56 127.252 237.272L126.532 237.032C125.38 236.648 124.54 236.224 124.012 235.76C123.484 235.28 123.22 234.576 123.22 233.648C123.22 232.576 123.604 231.768 124.372 231.224C125.14 230.664 126.34 230.384 127.972 230.384C128.596 230.384 129.204 230.432 129.796 230.528C130.404 230.624 130.924 230.744 131.356 230.888V233.072C130.924 232.896 130.436 232.76 129.892 232.664C129.364 232.568 128.86 232.52 128.38 232.52C127.5 232.52 126.86 232.6 126.46 232.76C126.06 232.904 125.86 233.184 125.86 233.6C125.86 233.968 126.012 234.248 126.316 234.44C126.62 234.616 127.22 234.848 128.116 235.136L128.644 235.304C129.572 235.592 130.292 235.888 130.804 236.192C131.316 236.48 131.684 236.84 131.908 237.272C132.148 237.688 132.268 238.232 132.268 238.904C132.268 241.128 130.676 242.24 127.492 242.24ZM138.624 242.24C137.856 242.24 137.112 242.184 136.392 242.072C135.672 241.976 135.08 241.84 134.616 241.664V239.456C135.144 239.664 135.728 239.824 136.368 239.936C137.024 240.048 137.664 240.104 138.288 240.104C139.216 240.104 139.864 240.024 140.232 239.864C140.6 239.704 140.784 239.392 140.784 238.928C140.784 238.512 140.616 238.208 140.28 238.016C139.944 237.808 139.312 237.56 138.384 237.272L137.664 237.032C136.512 236.648 135.672 236.224 135.144 235.76C134.616 235.28 134.352 234.576 134.352 233.648C134.352 232.576 134.736 231.768 135.504 231.224C136.272 230.664 137.472 230.384 139.104 230.384C139.728 230.384 140.336 230.432 140.928 230.528C141.536 230.624 142.056 230.744 142.488 230.888V233.072C142.056 232.896 141.568 232.76 141.024 232.664C140.496 232.568 139.992 232.52 139.512 232.52C138.632 232.52 137.992 232.6 137.592 232.76C137.192 232.904 136.992 233.184 136.992 233.6C136.992 233.968 137.144 234.248 137.448 234.44C137.752 234.616 138.352 234.848 139.248 235.136L139.776 235.304C140.704 235.592 141.424 235.888 141.936 236.192C142.448 236.48 142.816 236.84 143.04 237.272C143.28 237.688 143.4 238.232 143.4 238.904C143.4 241.128 141.808 242.24 138.624 242.24Z" fill="black"/>
<path d="M56.032 282.624H58.744L61.936 291.456L65.128 282.624H67.816L63.352 294H60.52L56.032 282.624ZM74.9517 294.24C72.9357 294.24 71.3917 293.744 70.3197 292.752C69.2477 291.76 68.7117 290.272 68.7117 288.288C68.7117 286.416 69.1837 284.968 70.1277 283.944C71.0717 282.904 72.4717 282.384 74.3277 282.384C76.0077 282.384 77.2957 282.824 78.1917 283.704C79.0877 284.584 79.5357 285.76 79.5357 287.232V289.344H71.2077C71.3357 290.432 71.7277 291.192 72.3837 291.624C73.0397 292.04 74.0717 292.248 75.4797 292.248C76.0557 292.248 76.6397 292.192 77.2317 292.08C77.8397 291.968 78.3757 291.824 78.8397 291.648V293.568C77.8317 294.016 76.5357 294.24 74.9517 294.24ZM77.2317 287.64V286.848C77.2317 286.032 77.0077 285.416 76.5597 285C76.1117 284.568 75.3917 284.352 74.3997 284.352C73.2157 284.352 72.3837 284.608 71.9037 285.12C71.4397 285.632 71.2077 286.472 71.2077 287.64H77.2317ZM82.0823 282.624H84.4823L84.6023 283.824C85.1463 283.392 85.7783 283.048 86.4983 282.792C87.2183 282.52 87.9863 282.384 88.8023 282.384C90.2743 282.384 91.3463 282.728 92.0183 283.416C92.6903 284.104 93.0263 285.176 93.0263 286.632V294H90.4343V286.752C90.4343 285.872 90.2503 285.256 89.8823 284.904C89.5143 284.552 88.8423 284.376 87.8663 284.376C87.2743 284.376 86.6903 284.496 86.1143 284.736C85.5543 284.976 85.0823 285.288 84.6983 285.672V294H82.0823V282.624ZM100.661 294.24C99.0133 294.24 97.7333 293.808 96.8213 292.944C95.9253 292.064 95.4773 290.64 95.4773 288.672C95.4773 287.344 95.7093 286.208 96.1733 285.264C96.6373 284.32 97.2773 283.608 98.0933 283.128C98.9093 282.632 99.8453 282.384 100.901 282.384C101.573 282.384 102.181 282.464 102.725 282.624C103.269 282.784 103.789 283.032 104.285 283.368V277.824H106.901V294H104.669L104.501 292.872C103.973 293.352 103.405 293.704 102.797 293.928C102.189 294.136 101.477 294.24 100.661 294.24ZM101.357 292.272C102.525 292.272 103.501 291.872 104.285 291.072V285.384C103.533 284.712 102.589 284.376 101.453 284.376C100.349 284.376 99.5173 284.744 98.9573 285.48C98.3973 286.216 98.1173 287.288 98.1173 288.696C98.1173 290.024 98.3653 290.952 98.8613 291.48C99.3733 292.008 100.205 292.272 101.357 292.272ZM115.023 294.24C111.071 294.24 109.095 292.264 109.095 288.312C109.095 284.36 111.071 282.384 115.023 282.384C118.991 282.384 120.975 284.36 120.975 288.312C120.975 292.264 118.991 294.24 115.023 294.24ZM115.023 292.032C116.223 292.032 117.071 291.744 117.567 291.168C118.079 290.592 118.335 289.64 118.335 288.312C118.335 287 118.079 286.056 117.567 285.48C117.071 284.904 116.223 284.616 115.023 284.616C113.839 284.616 112.991 284.904 112.479 285.48C111.983 286.056 111.735 287 111.735 288.312C111.735 289.64 111.983 290.592 112.479 291.168C112.991 291.744 113.839 292.032 115.023 292.032ZM123.52 282.624H125.92L126.064 283.944C126.608 283.592 127.256 283.272 128.008 282.984C128.76 282.696 129.504 282.496 130.24 282.384V284.376C129.552 284.504 128.808 284.704 128.008 284.976C127.208 285.232 126.584 285.504 126.136 285.792V294H123.52V282.624ZM131.852 291.96H134.06V294H131.852V291.96ZM138.085 278.088H140.941V280.248H138.085V278.088ZM137.245 299.616C136.317 299.616 135.525 299.488 134.869 299.232V297.336C135.365 297.496 135.853 297.576 136.333 297.576C137.085 297.576 137.605 297.44 137.893 297.168C138.197 296.912 138.349 296.464 138.349 295.824V284.616H136.621L136.861 282.624H140.941V296.064C140.941 297.168 140.621 298.032 139.981 298.656C139.357 299.296 138.445 299.616 137.245 299.616ZM147.749 294.24C146.981 294.24 146.237 294.184 145.517 294.072C144.797 293.976 144.205 293.84 143.741 293.664V291.456C144.269 291.664 144.853 291.824 145.493 291.936C146.149 292.048 146.789 292.104 147.413 292.104C148.341 292.104 148.989 292.024 149.357 291.864C149.725 291.704 149.909 291.392 149.909 290.928C149.909 290.512 149.741 290.208 149.405 290.016C149.069 289.808 148.437 289.56 147.509 289.272L146.789 289.032C145.637 288.648 144.797 288.224 144.269 287.76C143.741 287.28 143.477 286.576 143.477 285.648C143.477 284.576 143.861 283.768 144.629 283.224C145.397 282.664 146.597 282.384 148.229 282.384C148.853 282.384 149.461 282.432 150.053 282.528C150.661 282.624 151.181 282.744 151.613 282.888V285.072C151.181 284.896 150.693 284.76 150.149 284.664C149.621 284.568 149.117 284.52 148.637 284.52C147.757 284.52 147.117 284.6 146.717 284.76C146.317 284.904 146.117 285.184 146.117 285.6C146.117 285.968 146.269 286.248 146.573 286.44C146.877 286.616 147.477 286.848 148.373 287.136L148.901 287.304C149.829 287.592 150.549 287.888 151.061 288.192C151.573 288.48 151.941 288.84 152.165 289.272C152.405 289.688 152.525 290.232 152.525 290.904C152.525 293.128 150.933 294.24 147.749 294.24Z" fill="black"/>
<path d="M224.424 196.24C223.704 196.24 222.912 196.168 222.048 196.024C221.2 195.896 220.528 195.736 220.032 195.544V193.264C221.232 193.76 222.576 194.008 224.064 194.008C225.344 194.008 226.28 193.824 226.872 193.456C227.464 193.072 227.76 192.424 227.76 191.512C227.76 189.944 226.696 189.16 224.568 189.16H222.24L222.456 187.216H224.4C226.432 187.216 227.448 186.416 227.448 184.816C227.448 184.032 227.176 183.456 226.632 183.088C226.088 182.72 225.232 182.536 224.064 182.536C223.424 182.536 222.768 182.6 222.096 182.728C221.44 182.856 220.848 183.032 220.32 183.256V181.024C220.832 180.816 221.472 180.648 222.24 180.52C223.008 180.376 223.752 180.304 224.472 180.304C226.296 180.304 227.68 180.696 228.624 181.48C229.584 182.248 230.064 183.28 230.064 184.576C230.064 185.392 229.864 186.128 229.464 186.784C229.08 187.44 228.504 187.904 227.736 188.176C228.632 188.416 229.296 188.84 229.728 189.448C230.176 190.056 230.4 190.8 230.4 191.68C230.4 193.184 229.864 194.32 228.792 195.088C227.736 195.856 226.28 196.24 224.424 196.24ZM239.269 196.432C236.901 196.432 235.173 195.752 234.085 194.392C233.013 193.032 232.477 191.056 232.477 188.464C232.477 185.776 233.005 183.744 234.061 182.368C235.117 180.992 236.853 180.304 239.269 180.304C241.669 180.304 243.397 180.992 244.453 182.368C245.509 183.744 246.037 185.776 246.037 188.464C246.037 191.056 245.493 193.032 244.405 194.392C243.333 195.752 241.621 196.432 239.269 196.432ZM239.269 194.2C240.741 194.2 241.797 193.712 242.437 192.736C243.077 191.76 243.397 190.336 243.397 188.464C243.397 186.464 243.085 184.976 242.461 184C241.837 183.024 240.773 182.536 239.269 182.536C237.749 182.536 236.677 183.024 236.053 184C235.429 184.976 235.117 186.464 235.117 188.464C235.117 190.352 235.437 191.784 236.077 192.76C236.717 193.72 237.781 194.2 239.269 194.2ZM254.902 196.432C252.534 196.432 250.806 195.752 249.718 194.392C248.646 193.032 248.11 191.056 248.11 188.464C248.11 185.776 248.638 183.744 249.694 182.368C250.75 180.992 252.486 180.304 254.902 180.304C257.302 180.304 259.03 180.992 260.086 182.368C261.142 183.744 261.67 185.776 261.67 188.464C261.67 191.056 261.126 193.032 260.038 194.392C258.966 195.752 257.254 196.432 254.902 196.432ZM254.902 194.2C256.374 194.2 257.43 193.712 258.07 192.736C258.71 191.76 259.03 190.336 259.03 188.464C259.03 186.464 258.718 184.976 258.094 184C257.47 183.024 256.406 182.536 254.902 182.536C253.382 182.536 252.31 183.024 251.686 184C251.062 184.976 250.75 186.464 250.75 188.464C250.75 190.352 251.07 191.784 251.71 192.76C252.35 193.72 253.414 194.2 254.902 194.2ZM264.223 180.544H266.839V187.648L273.415 180.544H276.439L270.751 186.784L276.679 196H273.895L269.119 188.44L266.839 190.888V196H264.223V180.544ZM279.223 180.544H286.711C288.215 180.544 289.343 180.904 290.095 181.624C290.847 182.328 291.223 183.344 291.223 184.672C291.223 185.488 291.055 186.184 290.719 186.76C290.399 187.32 289.951 187.752 289.375 188.056C290.159 188.28 290.759 188.672 291.175 189.232C291.607 189.776 291.823 190.544 291.823 191.536C291.823 193.024 291.415 194.144 290.599 194.896C289.799 195.632 288.615 196 287.047 196H279.223V180.544ZM286.351 187.144C287.983 187.144 288.799 186.392 288.799 184.888C288.799 184.056 288.599 183.456 288.199 183.088C287.799 182.704 287.087 182.512 286.063 182.512H281.839V187.144H286.351ZM286.495 194.08C287.439 194.08 288.119 193.88 288.535 193.48C288.967 193.08 289.183 192.4 289.183 191.44C289.183 190.624 288.959 190.024 288.511 189.64C288.079 189.256 287.319 189.064 286.231 189.064H281.839V194.08H286.495Z" fill="black"/>
<path d="M220.032 243.704C220.416 242.824 220.944 242.008 221.616 241.256C222.288 240.488 223.136 239.664 224.16 238.784C225.136 237.936 225.832 237.304 226.248 236.888C226.664 236.456 226.96 236.032 227.136 235.616C227.312 235.2 227.4 234.688 227.4 234.08C227.4 233.232 227.152 232.6 226.656 232.184C226.16 231.752 225.368 231.536 224.28 231.536C223.112 231.536 221.888 231.776 220.608 232.256V229.952C221.184 229.76 221.848 229.608 222.6 229.496C223.368 229.368 224.096 229.304 224.784 229.304C226.48 229.304 227.776 229.728 228.672 230.576C229.568 231.408 230.016 232.568 230.016 234.056C230.016 235.064 229.768 235.936 229.272 236.672C228.792 237.408 228.04 238.24 227.016 239.168L226.608 239.528C225.712 240.312 225.024 240.944 224.544 241.424C224.08 241.888 223.688 242.408 223.368 242.984H230.184V245H220.032V243.704ZM239.035 245.432C236.667 245.432 234.939 244.752 233.851 243.392C232.779 242.032 232.243 240.056 232.243 237.464C232.243 234.776 232.771 232.744 233.827 231.368C234.883 229.992 236.619 229.304 239.035 229.304C241.435 229.304 243.163 229.992 244.219 231.368C245.275 232.744 245.803 234.776 245.803 237.464C245.803 240.056 245.259 242.032 244.171 243.392C243.099 244.752 241.387 245.432 239.035 245.432ZM239.035 243.2C240.507 243.2 241.563 242.712 242.203 241.736C242.843 240.76 243.163 239.336 243.163 237.464C243.163 235.464 242.851 233.976 242.227 233C241.603 232.024 240.539 231.536 239.035 231.536C237.515 231.536 236.443 232.024 235.819 233C235.195 233.976 234.883 235.464 234.883 237.464C234.883 239.352 235.203 240.784 235.843 241.76C236.483 242.72 237.547 243.2 239.035 243.2ZM254.668 245.432C252.3 245.432 250.572 244.752 249.484 243.392C248.412 242.032 247.876 240.056 247.876 237.464C247.876 234.776 248.404 232.744 249.46 231.368C250.516 229.992 252.252 229.304 254.668 229.304C257.068 229.304 258.796 229.992 259.852 231.368C260.908 232.744 261.436 234.776 261.436 237.464C261.436 240.056 260.892 242.032 259.804 243.392C258.732 244.752 257.02 245.432 254.668 245.432ZM254.668 243.2C256.14 243.2 257.196 242.712 257.836 241.736C258.476 240.76 258.796 239.336 258.796 237.464C258.796 235.464 258.484 233.976 257.86 233C257.236 232.024 256.172 231.536 254.668 231.536C253.148 231.536 252.076 232.024 251.452 233C250.828 233.976 250.516 235.464 250.516 237.464C250.516 239.352 250.836 240.784 251.476 241.76C252.116 242.72 253.18 243.2 254.668 243.2ZM263.989 229.544H266.605V236.648L273.181 229.544H276.205L270.517 235.784L276.445 245H273.661L268.885 237.44L266.605 239.888V245H263.989V229.544ZM278.989 229.544H286.477C287.981 229.544 289.109 229.904 289.861 230.624C290.613 231.328 290.989 232.344 290.989 233.672C290.989 234.488 290.821 235.184 290.485 235.76C290.165 236.32 289.717 236.752 289.141 237.056C289.925 237.28 290.525 237.672 290.941 238.232C291.373 238.776 291.589 239.544 291.589 240.536C291.589 242.024 291.181 243.144 290.365 243.896C289.565 244.632 288.381 245 286.813 245H278.989V229.544ZM286.117 236.144C287.749 236.144 288.565 235.392 288.565 233.888C288.565 233.056 288.365 232.456 287.965 232.088C287.565 231.704 286.853 231.512 285.829 231.512H281.605V236.144H286.117ZM286.261 243.08C287.205 243.08 287.885 242.88 288.301 242.48C288.733 242.08 288.949 241.4 288.949 240.44C288.949 239.624 288.725 239.024 288.277 238.64C287.845 238.256 287.085 238.064 285.997 238.064H281.605V243.08H286.261Z" fill="black"/>
<path d="M225.888 294.24C223.936 294.24 222.472 293.76 221.496 292.8C220.52 291.824 220.032 290.312 220.032 288.264V284.784C220.032 283.504 220.296 282.376 220.824 281.4C221.368 280.424 222.128 279.664 223.104 279.12C224.096 278.576 225.248 278.304 226.56 278.304C227.984 278.304 229.208 278.488 230.232 278.856V281.088C229.224 280.72 228.056 280.536 226.728 280.536C225.32 280.536 224.264 280.872 223.56 281.544C222.856 282.2 222.504 283.112 222.504 284.28V285.24C223.048 284.856 223.672 284.56 224.376 284.352C225.096 284.128 225.776 284.016 226.416 284.016C228.192 284.016 229.52 284.448 230.4 285.312C231.28 286.176 231.72 287.432 231.72 289.08C231.72 290.68 231.232 291.944 230.256 292.872C229.28 293.784 227.824 294.24 225.888 294.24ZM225.912 292.272C227.048 292.272 227.904 292 228.48 291.456C229.072 290.912 229.368 290.152 229.368 289.176C229.368 288.12 229.12 287.336 228.624 286.824C228.128 286.296 227.264 286.032 226.032 286.032C225.408 286.032 224.784 286.136 224.16 286.344C223.552 286.552 223 286.84 222.504 287.208V288.864C222.504 291.136 223.64 292.272 225.912 292.272ZM240.582 294.432C238.214 294.432 236.486 293.752 235.398 292.392C234.326 291.032 233.79 289.056 233.79 286.464C233.79 283.776 234.318 281.744 235.374 280.368C236.43 278.992 238.166 278.304 240.582 278.304C242.982 278.304 244.71 278.992 245.766 280.368C246.822 281.744 247.35 283.776 247.35 286.464C247.35 289.056 246.806 291.032 245.718 292.392C244.646 293.752 242.934 294.432 240.582 294.432ZM240.582 292.2C242.054 292.2 243.11 291.712 243.75 290.736C244.39 289.76 244.71 288.336 244.71 286.464C244.71 284.464 244.398 282.976 243.774 282C243.15 281.024 242.086 280.536 240.582 280.536C239.062 280.536 237.99 281.024 237.366 282C236.742 282.976 236.43 284.464 236.43 286.464C236.43 288.352 236.75 289.784 237.39 290.76C238.03 291.72 239.094 292.2 240.582 292.2ZM256.215 294.432C253.847 294.432 252.119 293.752 251.031 292.392C249.959 291.032 249.423 289.056 249.423 286.464C249.423 283.776 249.951 281.744 251.007 280.368C252.063 278.992 253.799 278.304 256.215 278.304C258.615 278.304 260.343 278.992 261.399 280.368C262.455 281.744 262.983 283.776 262.983 286.464C262.983 289.056 262.439 291.032 261.351 292.392C260.279 293.752 258.567 294.432 256.215 294.432ZM256.215 292.2C257.687 292.2 258.743 291.712 259.383 290.736C260.023 289.76 260.343 288.336 260.343 286.464C260.343 284.464 260.031 282.976 259.407 282C258.783 281.024 257.719 280.536 256.215 280.536C254.695 280.536 253.623 281.024 252.999 282C252.375 282.976 252.063 284.464 252.063 286.464C252.063 288.352 252.383 289.784 253.023 290.76C253.663 291.72 254.727 292.2 256.215 292.2ZM265.535 278.544H268.151V285.648L274.727 278.544H277.751L272.063 284.784L277.991 294H275.207L270.431 286.44L268.151 288.888V294H265.535V278.544ZM280.535 278.544H288.023C289.527 278.544 290.655 278.904 291.407 279.624C292.159 280.328 292.535 281.344 292.535 282.672C292.535 283.488 292.367 284.184 292.031 284.76C291.711 285.32 291.263 285.752 290.687 286.056C291.471 286.28 292.071 286.672 292.487 287.232C292.919 287.776 293.135 288.544 293.135 289.536C293.135 291.024 292.727 292.144 291.911 292.896C291.111 293.632 289.927 294 288.359 294H280.535V278.544ZM287.663 285.144C289.295 285.144 290.111 284.392 290.111 282.888C290.111 282.056 289.911 281.456 289.511 281.088C289.111 280.704 288.399 280.512 287.375 280.512H283.151V285.144H287.663ZM287.807 292.08C288.751 292.08 289.431 291.88 289.847 291.48C290.279 291.08 290.495 290.4 290.495 289.44C290.495 288.624 290.271 288.024 289.823 287.64C289.391 287.256 288.631 287.064 287.543 287.064H283.151V292.08H287.807Z" fill="black"/>
<path d="M388.08 294.24C386.08 294.24 384.568 293.872 383.544 293.136C382.536 292.384 382.032 291.28 382.032 289.824C382.032 288.928 382.272 288.144 382.752 287.472C383.232 286.784 383.904 286.296 384.768 286.008C384 285.72 383.424 285.288 383.04 284.712C382.656 284.12 382.464 283.456 382.464 282.72C382.464 281.344 382.936 280.264 383.88 279.48C384.824 278.696 386.224 278.304 388.08 278.304C389.968 278.304 391.376 278.696 392.304 279.48C393.232 280.248 393.696 281.328 393.696 282.72C393.696 283.504 393.504 284.208 393.12 284.832C392.736 285.44 392.12 285.904 391.272 286.224C392.248 286.512 392.96 286.952 393.408 287.544C393.872 288.136 394.104 288.896 394.104 289.824C394.104 291.28 393.6 292.384 392.592 293.136C391.584 293.872 390.08 294.24 388.08 294.24ZM388.728 285.408C389.624 285.184 390.272 284.88 390.672 284.496C391.072 284.096 391.272 283.52 391.272 282.768C391.272 281.168 390.208 280.368 388.08 280.368C385.952 280.368 384.888 281.168 384.888 282.768C384.888 283.392 385.064 283.904 385.416 284.304C385.784 284.688 386.32 284.944 387.024 285.072L388.728 285.408ZM388.08 292.2C389.296 292.2 390.2 292.008 390.792 291.624C391.384 291.224 391.68 290.608 391.68 289.776C391.68 289.056 391.48 288.52 391.08 288.168C390.68 287.816 390.016 287.544 389.088 287.352L387.12 286.944C386.24 287.136 385.576 287.448 385.128 287.88C384.68 288.296 384.456 288.912 384.456 289.728C384.456 290.576 384.752 291.2 385.344 291.6C385.952 292 386.864 292.2 388.08 292.2ZM402.98 294.432C400.612 294.432 398.884 293.752 397.796 292.392C396.724 291.032 396.188 289.056 396.188 286.464C396.188 283.776 396.716 281.744 397.772 280.368C398.828 278.992 400.564 278.304 402.98 278.304C405.38 278.304 407.108 278.992 408.164 280.368C409.22 281.744 409.748 283.776 409.748 286.464C409.748 289.056 409.204 291.032 408.116 292.392C407.044 293.752 405.332 294.432 402.98 294.432ZM402.98 292.2C404.452 292.2 405.508 291.712 406.148 290.736C406.788 289.76 407.108 288.336 407.108 286.464C407.108 284.464 406.796 282.976 406.172 282C405.548 281.024 404.484 280.536 402.98 280.536C401.46 280.536 400.388 281.024 399.764 282C399.14 282.976 398.828 284.464 398.828 286.464C398.828 288.352 399.148 289.784 399.788 290.76C400.428 291.72 401.492 292.2 402.98 292.2ZM418.613 294.432C416.245 294.432 414.517 293.752 413.429 292.392C412.357 291.032 411.821 289.056 411.821 286.464C411.821 283.776 412.349 281.744 413.405 280.368C414.461 278.992 416.197 278.304 418.613 278.304C421.013 278.304 422.741 278.992 423.797 280.368C424.853 281.744 425.381 283.776 425.381 286.464C425.381 289.056 424.837 291.032 423.749 292.392C422.677 293.752 420.965 294.432 418.613 294.432ZM418.613 292.2C420.085 292.2 421.141 291.712 421.781 290.736C422.421 289.76 422.741 288.336 422.741 286.464C422.741 284.464 422.429 282.976 421.805 282C421.181 281.024 420.117 280.536 418.613 280.536C417.093 280.536 416.021 281.024 415.397 282C414.773 282.976 414.461 284.464 414.461 286.464C414.461 288.352 414.781 289.784 415.421 290.76C416.061 291.72 417.125 292.2 418.613 292.2ZM427.934 278.544H430.55V285.648L437.126 278.544H440.15L434.462 284.784L440.39 294H437.606L432.83 286.44L430.55 288.888V294H427.934V278.544ZM442.934 278.544H450.422C451.926 278.544 453.054 278.904 453.806 279.624C454.558 280.328 454.934 281.344 454.934 282.672C454.934 283.488 454.766 284.184 454.43 284.76C454.11 285.32 453.662 285.752 453.086 286.056C453.87 286.28 454.47 286.672 454.886 287.232C455.318 287.776 455.534 288.544 455.534 289.536C455.534 291.024 455.126 292.144 454.31 292.896C453.51 293.632 452.326 294 450.758 294H442.934V278.544ZM450.062 285.144C451.694 285.144 452.51 284.392 452.51 282.888C452.51 282.056 452.31 281.456 451.91 281.088C451.51 280.704 450.798 280.512 449.774 280.512H445.55V285.144H450.062ZM450.206 292.08C451.15 292.08 451.83 291.88 452.246 291.48C452.678 291.08 452.894 290.4 452.894 289.44C452.894 288.624 452.67 288.024 452.222 287.64C451.79 287.256 451.03 287.064 449.942 287.064H445.55V292.08H450.206Z" fill="black"/>
<path d="M549.032 292.704C549.416 291.824 549.944 291.008 550.616 290.256C551.288 289.488 552.136 288.664 553.16 287.784C554.136 286.936 554.832 286.304 555.248 285.888C555.664 285.456 555.96 285.032 556.136 284.616C556.312 284.2 556.4 283.688 556.4 283.08C556.4 282.232 556.152 281.6 555.656 281.184C555.16 280.752 554.368 280.536 553.28 280.536C552.112 280.536 550.888 280.776 549.608 281.256V278.952C550.184 278.76 550.848 278.608 551.6 278.496C552.368 278.368 553.096 278.304 553.784 278.304C555.48 278.304 556.776 278.728 557.672 279.576C558.568 280.408 559.016 281.568 559.016 283.056C559.016 284.064 558.768 284.936 558.272 285.672C557.792 286.408 557.04 287.24 556.016 288.168L555.608 288.528C554.712 289.312 554.024 289.944 553.544 290.424C553.08 290.888 552.688 291.408 552.368 291.984H559.184V294H549.032V292.704ZM568.035 294.432C565.667 294.432 563.939 293.752 562.851 292.392C561.779 291.032 561.243 289.056 561.243 286.464C561.243 283.776 561.771 281.744 562.827 280.368C563.883 278.992 565.619 278.304 568.035 278.304C570.435 278.304 572.163 278.992 573.219 280.368C574.275 281.744 574.803 283.776 574.803 286.464C574.803 289.056 574.259 291.032 573.171 292.392C572.099 293.752 570.387 294.432 568.035 294.432ZM568.035 292.2C569.507 292.2 570.563 291.712 571.203 290.736C571.843 289.76 572.163 288.336 572.163 286.464C572.163 284.464 571.851 282.976 571.227 282C570.603 281.024 569.539 280.536 568.035 280.536C566.515 280.536 565.443 281.024 564.819 282C564.195 282.976 563.883 284.464 563.883 286.464C563.883 288.352 564.203 289.784 564.843 290.76C565.483 291.72 566.547 292.2 568.035 292.2ZM583.668 294.432C581.3 294.432 579.572 293.752 578.484 292.392C577.412 291.032 576.876 289.056 576.876 286.464C576.876 283.776 577.404 281.744 578.46 280.368C579.516 278.992 581.252 278.304 583.668 278.304C586.068 278.304 587.796 278.992 588.852 280.368C589.908 281.744 590.436 283.776 590.436 286.464C590.436 289.056 589.892 291.032 588.804 292.392C587.732 293.752 586.02 294.432 583.668 294.432ZM583.668 292.2C585.14 292.2 586.196 291.712 586.836 290.736C587.476 289.76 587.796 288.336 587.796 286.464C587.796 284.464 587.484 282.976 586.86 282C586.236 281.024 585.172 280.536 583.668 280.536C582.148 280.536 581.076 281.024 580.452 282C579.828 282.976 579.516 284.464 579.516 286.464C579.516 288.352 579.836 289.784 580.476 290.76C581.116 291.72 582.18 292.2 583.668 292.2ZM592.989 278.544H595.605V285.648L602.181 278.544H605.205L599.517 284.784L605.445 294H602.661L597.885 286.44L595.605 288.888V294H592.989V278.544ZM607.989 278.544H615.477C616.981 278.544 618.109 278.904 618.861 279.624C619.613 280.328 619.989 281.344 619.989 282.672C619.989 283.488 619.821 284.184 619.485 284.76C619.165 285.32 618.717 285.752 618.141 286.056C618.925 286.28 619.525 286.672 619.941 287.232C620.373 287.776 620.589 288.544 620.589 289.536C620.589 291.024 620.181 292.144 619.365 292.896C618.565 293.632 617.381 294 615.813 294H607.989V278.544ZM615.117 285.144C616.749 285.144 617.565 284.392 617.565 282.888C617.565 282.056 617.365 281.456 616.965 281.088C616.565 280.704 615.853 280.512 614.829 280.512H610.605V285.144H615.117ZM615.261 292.08C616.205 292.08 616.885 291.88 617.301 291.48C617.733 291.08 617.949 290.4 617.949 289.44C617.949 288.624 617.725 288.024 617.277 287.64C616.845 287.256 616.085 287.064 614.997 287.064H610.605V292.08H615.261Z" fill="black"/>
<path d="M389.28 192.616H381.552V190.768L389.592 180.544H391.872V190.504H393.456V192.616H391.872V196H389.28V192.616ZM389.688 190.576V183.52L384.096 190.576H389.688ZM401.855 196.432C399.487 196.432 397.759 195.752 396.671 194.392C395.599 193.032 395.063 191.056 395.063 188.464C395.063 185.776 395.591 183.744 396.647 182.368C397.703 180.992 399.439 180.304 401.855 180.304C404.255 180.304 405.983 180.992 407.039 182.368C408.095 183.744 408.623 185.776 408.623 188.464C408.623 191.056 408.079 193.032 406.991 194.392C405.919 195.752 404.207 196.432 401.855 196.432ZM401.855 194.2C403.327 194.2 404.383 193.712 405.023 192.736C405.663 191.76 405.983 190.336 405.983 188.464C405.983 186.464 405.671 184.976 405.047 184C404.423 183.024 403.359 182.536 401.855 182.536C400.335 182.536 399.263 183.024 398.639 184C398.015 184.976 397.703 186.464 397.703 188.464C397.703 190.352 398.023 191.784 398.663 192.76C399.303 193.72 400.367 194.2 401.855 194.2ZM417.488 196.432C415.12 196.432 413.392 195.752 412.304 194.392C411.232 193.032 410.696 191.056 410.696 188.464C410.696 185.776 411.224 183.744 412.28 182.368C413.336 180.992 415.072 180.304 417.488 180.304C419.888 180.304 421.616 180.992 422.672 182.368C423.728 183.744 424.256 185.776 424.256 188.464C424.256 191.056 423.712 193.032 422.624 194.392C421.552 195.752 419.84 196.432 417.488 196.432ZM417.488 194.2C418.96 194.2 420.016 193.712 420.656 192.736C421.296 191.76 421.616 190.336 421.616 188.464C421.616 186.464 421.304 184.976 420.68 184C420.056 183.024 418.992 182.536 417.488 182.536C415.968 182.536 414.896 183.024 414.272 184C413.648 184.976 413.336 186.464 413.336 188.464C413.336 190.352 413.656 191.784 414.296 192.76C414.936 193.72 416 194.2 417.488 194.2ZM426.809 180.544H429.425V187.648L436.001 180.544H439.025L433.337 186.784L439.265 196H436.481L431.705 188.44L429.425 190.888V196H426.809V180.544ZM441.809 180.544H449.297C450.801 180.544 451.929 180.904 452.681 181.624C453.433 182.328 453.809 183.344 453.809 184.672C453.809 185.488 453.641 186.184 453.305 186.76C452.985 187.32 452.537 187.752 451.961 188.056C452.745 188.28 453.345 188.672 453.761 189.232C454.193 189.776 454.409 190.544 454.409 191.536C454.409 193.024 454.001 194.144 453.185 194.896C452.385 195.632 451.201 196 449.633 196H441.809V180.544ZM448.937 187.144C450.569 187.144 451.385 186.392 451.385 184.888C451.385 184.056 451.185 183.456 450.785 183.088C450.385 182.704 449.673 182.512 448.649 182.512H444.425V187.144H448.937ZM449.081 194.08C450.025 194.08 450.705 193.88 451.121 193.48C451.553 193.08 451.769 192.4 451.769 191.44C451.769 190.624 451.545 190.024 451.097 189.64C450.665 189.256 449.905 189.064 448.817 189.064H444.425V194.08H449.081Z" fill="black"/>
<path d="M384.032 243.704C384.416 242.824 384.944 242.008 385.616 241.256C386.288 240.488 387.136 239.664 388.16 238.784C389.136 237.936 389.832 237.304 390.248 236.888C390.664 236.456 390.96 236.032 391.136 235.616C391.312 235.2 391.4 234.688 391.4 234.08C391.4 233.232 391.152 232.6 390.656 232.184C390.16 231.752 389.368 231.536 388.28 231.536C387.112 231.536 385.888 231.776 384.608 232.256V229.952C385.184 229.76 385.848 229.608 386.6 229.496C387.368 229.368 388.096 229.304 388.784 229.304C390.48 229.304 391.776 229.728 392.672 230.576C393.568 231.408 394.016 232.568 394.016 234.056C394.016 235.064 393.768 235.936 393.272 236.672C392.792 237.408 392.04 238.24 391.016 239.168L390.608 239.528C389.712 240.312 389.024 240.944 388.544 241.424C388.08 241.888 387.688 242.408 387.368 242.984H394.184V245H384.032V243.704ZM400.611 245.24C399.859 245.24 399.083 245.176 398.283 245.048C397.483 244.936 396.827 244.768 396.315 244.544V242.264C396.859 242.504 397.483 242.688 398.187 242.816C398.907 242.944 399.603 243.008 400.275 243.008C401.523 243.008 402.435 242.792 403.011 242.36C403.587 241.928 403.875 241.232 403.875 240.272C403.875 239.344 403.651 238.672 403.203 238.256C402.771 237.84 401.971 237.632 400.803 237.632H396.243V236.048L396.651 229.544H405.435L405.219 231.56H398.859L398.595 235.616H401.211C403.035 235.616 404.371 236.008 405.219 236.792C406.083 237.56 406.515 238.736 406.515 240.32C406.515 241.872 406.011 243.08 405.003 243.944C403.995 244.808 402.531 245.24 400.611 245.24ZM415.387 245.432C413.019 245.432 411.291 244.752 410.203 243.392C409.131 242.032 408.595 240.056 408.595 237.464C408.595 234.776 409.123 232.744 410.179 231.368C411.235 229.992 412.971 229.304 415.387 229.304C417.787 229.304 419.515 229.992 420.571 231.368C421.627 232.744 422.155 234.776 422.155 237.464C422.155 240.056 421.611 242.032 420.523 243.392C419.451 244.752 417.739 245.432 415.387 245.432ZM415.387 243.2C416.859 243.2 417.915 242.712 418.555 241.736C419.195 240.76 419.515 239.336 419.515 237.464C419.515 235.464 419.203 233.976 418.579 233C417.955 232.024 416.891 231.536 415.387 231.536C413.867 231.536 412.795 232.024 412.171 233C411.547 233.976 411.235 235.464 411.235 237.464C411.235 239.352 411.555 240.784 412.195 241.76C412.835 242.72 413.899 243.2 415.387 243.2ZM424.707 229.544H427.323V236.648L433.899 229.544H436.923L431.235 235.784L437.163 245H434.379L429.603 237.44L427.323 239.888V245H424.707V229.544ZM439.707 229.544H447.195C448.699 229.544 449.827 229.904 450.579 230.624C451.331 231.328 451.707 232.344 451.707 233.672C451.707 234.488 451.539 235.184 451.203 235.76C450.883 236.32 450.435 236.752 449.859 237.056C450.643 237.28 451.243 237.672 451.659 238.232C452.091 238.776 452.307 239.544 452.307 240.536C452.307 242.024 451.899 243.144 451.083 243.896C450.283 244.632 449.099 245 447.531 245H439.707V229.544ZM446.835 236.144C448.467 236.144 449.283 235.392 449.283 233.888C449.283 233.056 449.083 232.456 448.683 232.088C448.283 231.704 447.571 231.512 446.547 231.512H442.323V236.144H446.835ZM446.979 243.08C447.923 243.08 448.603 242.88 449.019 242.48C449.451 242.08 449.667 241.4 449.667 240.44C449.667 239.624 449.443 239.024 448.995 238.64C448.563 238.256 447.803 238.064 446.715 238.064H442.323V243.08H446.979Z" fill="black"/>
<path d="M553.528 182.848L551.032 183.28V181.096L556.12 180.304V196H553.528V182.848ZM565.488 196.432C563.12 196.432 561.392 195.752 560.304 194.392C559.232 193.032 558.696 191.056 558.696 188.464C558.696 185.776 559.224 183.744 560.28 182.368C561.336 180.992 563.072 180.304 565.488 180.304C567.888 180.304 569.616 180.992 570.672 182.368C571.728 183.744 572.256 185.776 572.256 188.464C572.256 191.056 571.712 193.032 570.624 194.392C569.552 195.752 567.84 196.432 565.488 196.432ZM565.488 194.2C566.96 194.2 568.016 193.712 568.656 192.736C569.296 191.76 569.616 190.336 569.616 188.464C569.616 186.464 569.304 184.976 568.68 184C568.056 183.024 566.992 182.536 565.488 182.536C563.968 182.536 562.896 183.024 562.272 184C561.648 184.976 561.336 186.464 561.336 188.464C561.336 190.352 561.656 191.784 562.296 192.76C562.936 193.72 564 194.2 565.488 194.2ZM581.121 196.432C578.753 196.432 577.025 195.752 575.937 194.392C574.865 193.032 574.329 191.056 574.329 188.464C574.329 185.776 574.857 183.744 575.913 182.368C576.969 180.992 578.705 180.304 581.121 180.304C583.521 180.304 585.249 180.992 586.305 182.368C587.361 183.744 587.889 185.776 587.889 188.464C587.889 191.056 587.345 193.032 586.257 194.392C585.185 195.752 583.473 196.432 581.121 196.432ZM581.121 194.2C582.593 194.2 583.649 193.712 584.289 192.736C584.929 191.76 585.249 190.336 585.249 188.464C585.249 186.464 584.937 184.976 584.313 184C583.689 183.024 582.625 182.536 581.121 182.536C579.601 182.536 578.529 183.024 577.905 184C577.281 184.976 576.969 186.464 576.969 188.464C576.969 190.352 577.289 191.784 577.929 192.76C578.569 193.72 579.633 194.2 581.121 194.2ZM590.442 180.544H593.058V187.648L599.634 180.544H602.658L596.97 186.784L602.898 196H600.114L595.338 188.44L593.058 190.888V196H590.442V180.544ZM605.442 180.544H612.93C614.434 180.544 615.562 180.904 616.314 181.624C617.066 182.328 617.442 183.344 617.442 184.672C617.442 185.488 617.274 186.184 616.938 186.76C616.618 187.32 616.17 187.752 615.594 188.056C616.378 188.28 616.978 188.672 617.394 189.232C617.826 189.776 618.042 190.544 618.042 191.536C618.042 193.024 617.634 194.144 616.818 194.896C616.018 195.632 614.834 196 613.266 196H605.442V180.544ZM612.57 187.144C614.202 187.144 615.018 186.392 615.018 184.888C615.018 184.056 614.818 183.456 614.418 183.088C614.018 182.704 613.306 182.512 612.282 182.512H608.058V187.144H612.57ZM612.714 194.08C613.658 194.08 614.338 193.88 614.754 193.48C615.186 193.08 615.402 192.4 615.402 191.44C615.402 190.624 615.178 190.024 614.73 189.64C614.298 189.256 613.538 189.064 612.45 189.064H608.058V194.08H612.714Z" fill="black"/>
<path d="M560.4 245.24C559.648 245.24 558.872 245.176 558.072 245.048C557.272 244.936 556.616 244.768 556.104 244.544V242.264C556.648 242.504 557.272 242.688 557.976 242.816C558.696 242.944 559.392 243.008 560.064 243.008C561.312 243.008 562.224 242.792 562.8 242.36C563.376 241.928 563.664 241.232 563.664 240.272C563.664 239.344 563.44 238.672 562.992 238.256C562.56 237.84 561.76 237.632 560.592 237.632H556.032V236.048L556.44 229.544H565.224L565.008 231.56H558.648L558.384 235.616H561C562.824 235.616 564.16 236.008 565.008 236.792C565.872 237.56 566.304 238.736 566.304 240.32C566.304 241.872 565.8 243.08 564.792 243.944C563.784 244.808 562.32 245.24 560.4 245.24ZM575.176 245.432C572.808 245.432 571.08 244.752 569.992 243.392C568.92 242.032 568.384 240.056 568.384 237.464C568.384 234.776 568.912 232.744 569.968 231.368C571.024 229.992 572.76 229.304 575.176 229.304C577.576 229.304 579.304 229.992 580.36 231.368C581.416 232.744 581.944 234.776 581.944 237.464C581.944 240.056 581.4 242.032 580.312 243.392C579.24 244.752 577.528 245.432 575.176 245.432ZM575.176 243.2C576.648 243.2 577.704 242.712 578.344 241.736C578.984 240.76 579.304 239.336 579.304 237.464C579.304 235.464 578.992 233.976 578.368 233C577.744 232.024 576.68 231.536 575.176 231.536C573.656 231.536 572.584 232.024 571.96 233C571.336 233.976 571.024 235.464 571.024 237.464C571.024 239.352 571.344 240.784 571.984 241.76C572.624 242.72 573.688 243.2 575.176 243.2ZM584.496 229.544H587.112V236.648L593.688 229.544H596.712L591.024 235.784L596.952 245H594.168L589.392 237.44L587.112 239.888V245H584.496V229.544ZM599.496 229.544H606.984C608.488 229.544 609.616 229.904 610.368 230.624C611.12 231.328 611.496 232.344 611.496 233.672C611.496 234.488 611.328 235.184 610.992 235.76C610.672 236.32 610.224 236.752 609.648 237.056C610.432 237.28 611.032 237.672 611.448 238.232C611.88 238.776 612.096 239.544 612.096 240.536C612.096 242.024 611.688 243.144 610.872 243.896C610.072 244.632 608.888 245 607.32 245H599.496V229.544ZM606.624 236.144C608.256 236.144 609.072 235.392 609.072 233.888C609.072 233.056 608.872 232.456 608.472 232.088C608.072 231.704 607.36 231.512 606.336 231.512H602.112V236.144H606.624ZM606.768 243.08C607.712 243.08 608.392 242.88 608.808 242.48C609.24 242.08 609.456 241.4 609.456 240.44C609.456 239.624 609.232 239.024 608.784 238.64C608.352 238.256 607.592 238.064 606.504 238.064H602.112V243.08H606.768Z" fill="black"/>
<path d="M203.08 128.544H211.576C213.128 128.544 214.312 128.912 215.128 129.648C215.96 130.384 216.376 131.44 216.376 132.816C216.376 133.584 216.232 134.248 215.944 134.808C215.656 135.368 215.264 135.808 214.768 136.128C215.488 136.416 216.024 136.808 216.376 137.304C216.744 137.8 216.928 138.504 216.928 139.416C216.928 140.872 216.48 142 215.584 142.8C214.688 143.6 213.416 144 211.768 144H203.08V128.544ZM210.352 134.712C211.456 134.712 212.008 134.216 212.008 133.224C212.008 132.712 211.864 132.336 211.576 132.096C211.304 131.84 210.856 131.712 210.232 131.712H207.424V134.712H210.352ZM210.544 140.856C211.152 140.856 211.6 140.728 211.888 140.472C212.176 140.216 212.32 139.792 212.32 139.2C212.32 138.688 212.168 138.312 211.864 138.072C211.576 137.816 211.104 137.688 210.448 137.688H207.424V140.856H210.544ZM222.171 144.24C221.003 144.24 220.035 143.936 219.267 143.328C218.515 142.704 218.139 141.792 218.139 140.592C218.139 139.376 218.539 138.44 219.339 137.784C220.155 137.128 221.363 136.8 222.963 136.8H225.915V136.584C225.915 136.136 225.723 135.808 225.339 135.6C224.971 135.392 224.331 135.288 223.419 135.288C222.107 135.288 220.811 135.488 219.531 135.888V133.176C220.123 132.936 220.851 132.744 221.715 132.6C222.579 132.456 223.451 132.384 224.331 132.384C226.187 132.384 227.627 132.768 228.651 133.536C229.691 134.288 230.211 135.44 230.211 136.992V144H226.275L226.059 143.088C225.195 143.856 223.899 144.24 222.171 144.24ZM223.707 141.6C224.619 141.6 225.355 141.296 225.915 140.688V139.272H223.731C223.219 139.272 222.843 139.368 222.603 139.56C222.363 139.752 222.243 140.048 222.243 140.448C222.243 141.216 222.731 141.6 223.707 141.6ZM236.7 144.24C235.756 144.24 234.852 144.168 233.988 144.024C233.124 143.896 232.436 143.728 231.924 143.52V140.28C232.452 140.536 233.1 140.736 233.868 140.88C234.636 141.024 235.316 141.096 235.908 141.096C236.612 141.096 237.076 141.08 237.3 141.048C237.54 141 237.66 140.864 237.66 140.64C237.66 140.448 237.532 140.296 237.276 140.184C237.036 140.072 236.636 139.936 236.076 139.776L234.876 139.392C233.772 138.992 232.98 138.544 232.5 138.048C232.02 137.552 231.78 136.848 231.78 135.936C231.78 133.568 233.636 132.384 237.348 132.384C238.052 132.384 238.796 132.44 239.58 132.552C240.364 132.664 240.996 132.792 241.476 132.936V136.104C241.012 135.912 240.492 135.768 239.916 135.672C239.356 135.56 238.836 135.504 238.356 135.504C237.7 135.504 237.204 135.536 236.868 135.6C236.548 135.648 236.388 135.776 236.388 135.984C236.388 136.16 236.492 136.296 236.7 136.392C236.924 136.488 237.308 136.608 237.852 136.752L238.908 137.064C239.772 137.32 240.444 137.6 240.924 137.904C241.42 138.208 241.764 138.576 241.956 139.008C242.164 139.424 242.268 139.96 242.268 140.616C242.268 141.784 241.796 142.68 240.852 143.304C239.908 143.928 238.524 144.24 236.7 144.24ZM249.61 144.24C247.562 144.24 245.922 143.736 244.69 142.728C243.474 141.704 242.866 140.24 242.866 138.336C242.866 136.48 243.386 135.024 244.426 133.968C245.466 132.912 246.986 132.384 248.986 132.384C250.826 132.384 252.274 132.856 253.33 133.8C254.386 134.744 254.914 136.032 254.914 137.664V139.656H247.018C247.21 140.248 247.602 140.68 248.194 140.952C248.802 141.208 249.642 141.336 250.714 141.336C251.354 141.336 252.002 141.28 252.658 141.168C253.33 141.056 253.874 140.912 254.29 140.736V143.448C253.17 143.976 251.61 144.24 249.61 144.24ZM251.026 137.208V136.8C251.026 135.776 250.394 135.264 249.13 135.264C248.378 135.264 247.834 135.424 247.498 135.744C247.178 136.064 247.018 136.552 247.018 137.208H251.026ZM269.808 144.24C268.752 144.24 267.76 144.16 266.832 144C265.904 143.824 265.12 143.584 264.48 143.28V139.56C265.216 139.896 266.024 140.168 266.904 140.376C267.784 140.584 268.6 140.688 269.352 140.688C270.216 140.688 270.832 140.616 271.2 140.472C271.584 140.312 271.776 140.008 271.776 139.56C271.776 139.272 271.68 139.04 271.488 138.864C271.312 138.672 271.048 138.512 270.696 138.384C270.344 138.24 269.784 138.048 269.016 137.808C268.76 137.744 268.568 137.688 268.44 137.64C267.384 137.304 266.552 136.936 265.944 136.536C265.352 136.136 264.92 135.656 264.648 135.096C264.392 134.52 264.264 133.808 264.264 132.96C264.264 131.44 264.808 130.288 265.896 129.504C266.984 128.704 268.584 128.304 270.696 128.304C271.512 128.304 272.368 128.376 273.264 128.52C274.176 128.648 274.928 128.808 275.52 129V132.744C274.112 132.184 272.744 131.904 271.416 131.904C270.568 131.904 269.928 131.968 269.496 132.096C269.08 132.224 268.872 132.504 268.872 132.936C268.872 133.208 268.96 133.424 269.136 133.584C269.312 133.744 269.576 133.888 269.928 134.016C270.296 134.128 270.912 134.296 271.776 134.52C273.008 134.856 273.952 135.264 274.608 135.744C275.28 136.208 275.744 136.744 276 137.352C276.256 137.96 276.384 138.696 276.384 139.56C276.384 141 275.824 142.144 274.704 142.992C273.6 143.824 271.968 144.24 269.808 144.24ZM278.509 127.848H283.381V131.112H278.509V127.848ZM278.869 135.912H277.213L277.597 132.624H283.381V144H278.869V135.912ZM285.053 141.528L289.829 136.08H285.221V132.624H295.565V135.168L290.933 140.544H295.733V144H285.053V141.528ZM303.071 144.24C301.023 144.24 299.383 143.736 298.151 142.728C296.935 141.704 296.327 140.24 296.327 138.336C296.327 136.48 296.847 135.024 297.887 133.968C298.927 132.912 300.447 132.384 302.447 132.384C304.287 132.384 305.735 132.856 306.791 133.8C307.847 134.744 308.375 136.032 308.375 137.664V139.656H300.479C300.671 140.248 301.063 140.68 301.655 140.952C302.263 141.208 303.103 141.336 304.175 141.336C304.815 141.336 305.463 141.28 306.119 141.168C306.791 141.056 307.335 140.912 307.751 140.736V143.448C306.631 143.976 305.071 144.24 303.071 144.24ZM304.487 137.208V136.8C304.487 135.776 303.855 135.264 302.591 135.264C301.839 135.264 301.295 135.424 300.959 135.744C300.639 136.064 300.479 136.552 300.479 137.208H304.487Z" fill="black"/>
<path d="M364.08 128.544H368.592V134.304H373.92V128.544H378.432V144H373.92V138.24H368.592V144H364.08V128.544ZM386.867 144.24C384.819 144.24 383.179 143.736 381.947 142.728C380.731 141.704 380.123 140.24 380.123 138.336C380.123 136.48 380.643 135.024 381.683 133.968C382.723 132.912 384.243 132.384 386.243 132.384C388.083 132.384 389.531 132.856 390.587 133.8C391.643 134.744 392.171 136.032 392.171 137.664V139.656H384.275C384.467 140.248 384.859 140.68 385.451 140.952C386.059 141.208 386.899 141.336 387.971 141.336C388.611 141.336 389.259 141.28 389.915 141.168C390.587 141.056 391.131 140.912 391.547 140.736V143.448C390.427 143.976 388.867 144.24 386.867 144.24ZM388.283 137.208V136.8C388.283 135.776 387.651 135.264 386.387 135.264C385.635 135.264 385.091 135.424 384.755 135.744C384.435 136.064 384.275 136.552 384.275 137.208H388.283ZM396.554 144.24C395.386 144.24 394.418 143.936 393.65 143.328C392.898 142.704 392.522 141.792 392.522 140.592C392.522 139.376 392.922 138.44 393.722 137.784C394.538 137.128 395.746 136.8 397.346 136.8H400.298V136.584C400.298 136.136 400.106 135.808 399.722 135.6C399.354 135.392 398.714 135.288 397.802 135.288C396.49 135.288 395.194 135.488 393.914 135.888V133.176C394.506 132.936 395.234 132.744 396.098 132.6C396.962 132.456 397.834 132.384 398.714 132.384C400.57 132.384 402.01 132.768 403.034 133.536C404.074 134.288 404.594 135.44 404.594 136.992V144H400.658L400.442 143.088C399.578 143.856 398.282 144.24 396.554 144.24ZM398.09 141.6C399.002 141.6 399.738 141.296 400.298 140.688V139.272H398.114C397.602 139.272 397.226 139.368 396.986 139.56C396.746 139.752 396.626 140.048 396.626 140.448C396.626 141.216 397.114 141.6 398.09 141.6ZM411.467 144.24C409.771 144.24 408.459 143.8 407.531 142.92C406.619 142.04 406.163 140.624 406.163 138.672C406.163 137.328 406.403 136.184 406.883 135.24C407.379 134.296 408.035 133.584 408.851 133.104C409.683 132.624 410.603 132.384 411.611 132.384C412.139 132.384 412.659 132.44 413.171 132.552C413.699 132.664 414.155 132.824 414.539 133.032V127.824H419.051V144H415.139L414.923 143.112C414.443 143.48 413.923 143.76 413.363 143.952C412.819 144.144 412.187 144.24 411.467 144.24ZM412.763 140.976C413.451 140.976 414.043 140.744 414.539 140.28V136.248C414.091 135.848 413.499 135.648 412.763 135.648C412.155 135.648 411.667 135.92 411.299 136.464C410.947 136.992 410.771 137.736 410.771 138.696C410.771 139.32 410.835 139.8 410.963 140.136C411.107 140.456 411.315 140.68 411.587 140.808C411.875 140.92 412.267 140.976 412.763 140.976ZM434.441 144.24C433.385 144.24 432.393 144.16 431.465 144C430.537 143.824 429.753 143.584 429.113 143.28V139.56C429.849 139.896 430.657 140.168 431.537 140.376C432.417 140.584 433.233 140.688 433.985 140.688C434.849 140.688 435.465 140.616 435.833 140.472C436.217 140.312 436.409 140.008 436.409 139.56C436.409 139.272 436.313 139.04 436.121 138.864C435.945 138.672 435.681 138.512 435.329 138.384C434.977 138.24 434.417 138.048 433.649 137.808C433.393 137.744 433.201 137.688 433.073 137.64C432.017 137.304 431.185 136.936 430.577 136.536C429.985 136.136 429.553 135.656 429.281 135.096C429.025 134.52 428.897 133.808 428.897 132.96C428.897 131.44 429.441 130.288 430.529 129.504C431.617 128.704 433.217 128.304 435.329 128.304C436.145 128.304 437.001 128.376 437.897 128.52C438.809 128.648 439.561 128.808 440.153 129V132.744C438.745 132.184 437.377 131.904 436.049 131.904C435.201 131.904 434.561 131.968 434.129 132.096C433.713 132.224 433.505 132.504 433.505 132.936C433.505 133.208 433.593 133.424 433.769 133.584C433.945 133.744 434.209 133.888 434.561 134.016C434.929 134.128 435.545 134.296 436.409 134.52C437.641 134.856 438.585 135.264 439.241 135.744C439.913 136.208 440.377 136.744 440.633 137.352C440.889 137.96 441.017 138.696 441.017 139.56C441.017 141 440.457 142.144 439.337 142.992C438.233 143.824 436.601 144.24 434.441 144.24ZM443.142 127.848H448.014V131.112H443.142V127.848ZM443.502 135.912H441.846L442.23 132.624H448.014V144H443.502V135.912ZM449.686 141.528L454.462 136.08H449.854V132.624H460.198V135.168L455.566 140.544H460.366V144H449.686V141.528ZM467.703 144.24C465.655 144.24 464.015 143.736 462.783 142.728C461.567 141.704 460.959 140.24 460.959 138.336C460.959 136.48 461.479 135.024 462.519 133.968C463.559 132.912 465.079 132.384 467.079 132.384C468.919 132.384 470.367 132.856 471.423 133.8C472.479 134.744 473.007 136.032 473.007 137.664V139.656H465.111C465.303 140.248 465.695 140.68 466.287 140.952C466.895 141.208 467.735 141.336 468.807 141.336C469.447 141.336 470.095 141.28 470.751 141.168C471.423 141.056 471.967 140.912 472.383 140.736V143.448C471.263 143.976 469.703 144.24 467.703 144.24ZM469.119 137.208V136.8C469.119 135.776 468.487 135.264 467.223 135.264C466.471 135.264 465.927 135.424 465.591 135.744C465.271 136.064 465.111 136.552 465.111 137.208H469.119Z" fill="black"/>
<path d="M529.08 128.544H535.992C538.456 128.544 540.32 129.168 541.584 130.416C542.864 131.648 543.504 133.632 543.504 136.368C543.504 138.976 542.864 140.904 541.584 142.152C540.32 143.384 538.456 144 535.992 144H529.08V128.544ZM535.416 140.544C536.216 140.544 536.864 140.432 537.36 140.208C537.856 139.968 538.232 139.552 538.488 138.96C538.76 138.352 538.896 137.488 538.896 136.368C538.896 135.232 538.776 134.352 538.536 133.728C538.296 133.088 537.92 132.64 537.408 132.384C536.912 132.128 536.248 132 535.416 132H533.592V140.544H535.416ZM545.399 127.848H550.271V131.112H545.399V127.848ZM545.759 135.912H544.103L544.487 132.624H550.271V144H545.759V135.912ZM552.928 135.96H551.464V132.624H552.928V131.88C552.928 130.552 553.304 129.48 554.056 128.664C554.824 127.848 555.92 127.44 557.344 127.44C558.496 127.44 559.512 127.624 560.392 127.992V130.92C559.896 130.744 559.416 130.656 558.952 130.656C558.392 130.656 558 130.76 557.776 130.968C557.552 131.176 557.44 131.512 557.44 131.976V132.624H560.128L559.936 135.96H557.44V144H552.928V135.96ZM560.545 135.96H559.081V132.624H560.545V131.88C560.545 130.552 560.921 129.48 561.673 128.664C562.441 127.848 563.537 127.44 564.961 127.44C566.113 127.44 567.129 127.624 568.009 127.992V130.92C567.513 130.744 567.033 130.656 566.569 130.656C566.009 130.656 565.617 130.76 565.393 130.968C565.169 131.176 565.057 131.512 565.057 131.976V132.624H567.745L567.553 135.96H565.057V144H560.545V135.96ZM573.922 144.24C571.874 144.24 570.234 143.736 569.002 142.728C567.786 141.704 567.178 140.24 567.178 138.336C567.178 136.48 567.698 135.024 568.738 133.968C569.778 132.912 571.298 132.384 573.298 132.384C575.138 132.384 576.586 132.856 577.642 133.8C578.698 134.744 579.226 136.032 579.226 137.664V139.656H571.33C571.522 140.248 571.914 140.68 572.506 140.952C573.114 141.208 573.954 141.336 575.026 141.336C575.666 141.336 576.314 141.28 576.97 141.168C577.642 141.056 578.186 140.912 578.602 140.736V143.448C577.482 143.976 575.922 144.24 573.922 144.24ZM575.338 137.208V136.8C575.338 135.776 574.706 135.264 573.442 135.264C572.69 135.264 572.146 135.424 571.81 135.744C571.49 136.064 571.33 136.552 571.33 137.208H575.338ZM580.9 132.624H585.244L585.364 133.536C585.86 133.248 586.46 133 587.164 132.792C587.884 132.568 588.604 132.432 589.324 132.384V135.744C588.652 135.792 587.94 135.896 587.188 136.056C586.436 136.216 585.844 136.4 585.412 136.608V144H580.9V132.624ZM595.719 144.24C593.671 144.24 592.031 143.736 590.799 142.728C589.583 141.704 588.975 140.24 588.975 138.336C588.975 136.48 589.495 135.024 590.535 133.968C591.575 132.912 593.095 132.384 595.095 132.384C596.935 132.384 598.383 132.856 599.439 133.8C600.495 134.744 601.023 136.032 601.023 137.664V139.656H593.127C593.319 140.248 593.711 140.68 594.303 140.952C594.911 141.208 595.751 141.336 596.823 141.336C597.463 141.336 598.111 141.28 598.767 141.168C599.439 141.056 599.983 140.912 600.399 140.736V143.448C599.279 143.976 597.719 144.24 595.719 144.24ZM597.135 137.208V136.8C597.135 135.776 596.503 135.264 595.239 135.264C594.487 135.264 593.943 135.424 593.607 135.744C593.287 136.064 593.127 136.552 593.127 137.208H597.135ZM602.697 132.624H606.921L607.041 133.488C607.505 133.168 608.097 132.904 608.817 132.696C609.537 132.488 610.281 132.384 611.049 132.384C612.473 132.384 613.513 132.736 614.169 133.44C614.825 134.144 615.153 135.232 615.153 136.704V144H610.641V137.16C610.641 136.648 610.521 136.28 610.281 136.056C610.057 135.832 609.673 135.72 609.129 135.72C608.793 135.72 608.449 135.8 608.097 135.96C607.745 136.104 607.449 136.296 607.209 136.536V144H602.697V132.624ZM623.398 144.24C621.286 144.24 619.638 143.744 618.454 142.752C617.286 141.744 616.702 140.264 616.702 138.312C616.702 136.36 617.302 134.888 618.502 133.896C619.702 132.888 621.342 132.384 623.422 132.384C624.286 132.384 625.046 132.448 625.702 132.576C626.374 132.688 627.014 132.888 627.622 133.176V136.344C626.678 135.896 625.606 135.672 624.406 135.672C623.35 135.672 622.566 135.872 622.054 136.272C621.558 136.672 621.31 137.352 621.31 138.312C621.31 139.24 621.558 139.912 622.054 140.328C622.55 140.744 623.334 140.952 624.406 140.952C625.542 140.952 626.622 140.688 627.646 140.16V143.472C626.51 143.984 625.094 144.24 623.398 144.24ZM634.742 144.24C632.694 144.24 631.054 143.736 629.822 142.728C628.606 141.704 627.998 140.24 627.998 138.336C627.998 136.48 628.518 135.024 629.558 133.968C630.598 132.912 632.118 132.384 634.118 132.384C635.958 132.384 637.406 132.856 638.462 133.8C639.518 134.744 640.046 136.032 640.046 137.664V139.656H632.15C632.342 140.248 632.734 140.68 633.326 140.952C633.934 141.208 634.774 141.336 635.846 141.336C636.486 141.336 637.134 141.28 637.79 141.168C638.462 141.056 639.006 140.912 639.422 140.736V143.448C638.302 143.976 636.742 144.24 634.742 144.24ZM636.158 137.208V136.8C636.158 135.776 635.526 135.264 634.262 135.264C633.51 135.264 632.966 135.424 632.63 135.744C632.31 136.064 632.15 136.552 632.15 137.208H636.158Z" fill="black"/>
</svg>
